<svg width="71" height="24" viewBox="0 0 71 24" fill="none" xmlns="http://www.w3.org/2000/svg">
<path d="M6.10547 9.27441V15.3672C6.10547 16.4242 6.22445 17.2293 6.4624 17.7827C6.70589 18.3361 7.1403 18.7262 7.76562 18.9531C8.39648 19.18 9.32894 19.299 10.563 19.3101H17.021C18.1942 19.299 19.0796 19.1911 19.6772 18.9863C20.2804 18.776 20.6955 18.397 20.9224 17.8491C21.1548 17.2957 21.271 16.4684 21.271 15.3672L21.3042 9.27441C21.3042 8.389 21.2433 7.68343 21.1216 7.15771C21.0054 6.62646 20.7923 6.21419 20.4824 5.9209C20.1781 5.62207 19.7575 5.41455 19.2207 5.29834C18.6895 5.1766 17.9673 5.11019 17.0542 5.09912H10.5962C9.37321 5.11019 8.44076 5.23747 7.79883 5.48096C7.16243 5.72445 6.71973 6.13672 6.4707 6.71777C6.22721 7.29883 6.10547 8.15104 6.10547 9.27441ZM26.9487 15.9399C26.9487 17.6222 26.8021 18.9836 26.5088 20.0239C26.2155 21.0588 25.7451 21.8612 25.0977 22.4312C24.4502 23.0011 23.5897 23.4023 22.5161 23.6348C21.4481 23.8617 20.0812 23.9834 18.4155 24H9.20166C7.4585 23.9834 6.0446 23.8534 4.95996 23.6099C3.87533 23.3664 3.00098 22.9513 2.33691 22.3647C1.67285 21.7782 1.19417 20.9702 0.900879 19.9409C0.607585 18.9116 0.460938 17.578 0.460938 15.9399V8.86768C0.460938 6.6818 0.715495 4.99398 1.22461 3.8042C1.73926 2.61442 2.62191 1.75944 3.87256 1.23926C5.12321 0.713542 6.89958 0.434082 9.20166 0.400879H18.4155C20.5737 0.434082 22.2699 0.719076 23.5039 1.25586C24.738 1.79264 25.6206 2.66423 26.1519 3.87061C26.6831 5.07699 26.9487 6.74268 26.9487 8.86768V15.9399ZM49.16 24H43.5154V5.47266H41.7806L35.4969 10.4033L32.5003 6.07861L39.8133 0.400879H49.16V24ZM63.4855 24V18.3555H70.0514V24H63.4855Z" fill="url(#paint0_linear_62_172)"/>
<defs>
<linearGradient id="paint0_linear_62_172" x1="-1" y1="-5" x2="75.1866" y2="-0.426619" gradientUnits="userSpaceOnUse">
<stop stop-color="#00CCFF"/>
<stop offset="1" stop-color="#66FFCC"/>
</linearGradient>
</defs>
</svg>
