<svg width="25" height="25" viewBox="0 0 25 25" fill="none" xmlns="http://www.w3.org/2000/svg">
<path d="M17.0954 8.06449C17.5037 8.47277 17.5037 9.13471 17.0954 9.54299L13.9785 12.6599L16.7755 15.457C17.1838 15.8652 17.1838 16.5272 16.7755 16.9355C16.3673 17.3437 15.7053 17.3437 15.297 16.9355L12.5 14.1384L9.70297 16.9355C9.29469 17.3437 8.63275 17.3437 8.22447 16.9355C7.81619 16.5272 7.81619 15.8652 8.22447 15.457L11.0215 12.6599L7.90455 9.54299C7.49628 9.13471 7.49628 8.47277 7.90455 8.06449C8.31283 7.65622 8.97477 7.65622 9.38305 8.06449L12.5 11.1814L15.6169 8.06449C16.0252 7.65622 16.6872 7.65622 17.0954 8.06449Z" fill="white" fill-opacity="0.5"/>
<path fill-rule="evenodd" clip-rule="evenodd" d="M4.13636 1C2.4042 1 1 2.4042 1 4.13636V20.8636C1 22.5958 2.4042 24 4.13636 24H20.8636C22.5958 24 24 22.5958 24 20.8636V4.13636C24 2.4042 22.5958 1 20.8636 1H4.13636ZM20.8636 3.09091H4.13636C3.55897 3.09091 3.09091 3.55897 3.09091 4.13636V20.8636C3.09091 21.441 3.55897 21.9091 4.13636 21.9091H20.8636C21.441 21.9091 21.9091 21.441 21.9091 20.8636V4.13636C21.9091 3.55897 21.441 3.09091 20.8636 3.09091Z" fill="white" fill-opacity="0.5"/>
</svg>
