<svg width="24" height="24" viewBox="0 0 24 24" fill="none" xmlns="http://www.w3.org/2000/svg">
<path fill-rule="evenodd" clip-rule="evenodd" d="M12 0C8.73998 0 8.33398 0.014 7.05198 0.0739998C2.69199 0.273999 0.271999 2.69199 0.0719998 7.05198C0.014 8.33398 0 8.74198 0 12C0 15.26 0.014 15.668 0.0719998 16.948C0.271999 21.3059 2.69199 23.7279 7.05198 23.9279C8.33398 23.9859 8.73998 23.9999 12 23.9999C15.26 23.9999 15.668 23.9859 16.95 23.9279C21.3019 23.7279 23.7319 21.3099 23.9279 16.948C23.9859 15.668 23.9999 15.26 23.9999 12C23.9999 8.74198 23.9859 8.33398 23.9279 7.05198C23.7319 2.69799 21.3099 0.271999 16.95 0.0739998C15.668 0.014 15.26 0 12 0ZM12 2.16389C15.204 2.16389 15.584 2.17589 16.85 2.23389C20.104 2.38189 21.62 3.92389 21.77 7.15188C21.826 8.41788 21.838 8.79588 21.838 11.9999C21.838 15.2039 21.826 15.5839 21.77 16.8479C21.62 20.0738 20.106 21.6198 16.85 21.7678C15.584 21.8238 15.206 21.8378 12 21.8378C8.79601 21.8378 8.41602 21.8258 7.15202 21.7678C3.89203 21.6178 2.38203 20.0698 2.23203 16.8479C2.17603 15.5839 2.16203 15.2039 2.16203 11.9999C2.16203 8.79588 2.17603 8.41588 2.23203 7.15188C2.38003 3.92189 3.89603 2.37989 7.15202 2.23189C8.41602 2.17389 8.79601 2.16389 12 2.16389ZM5.83814 12C5.83814 8.596 8.59813 5.838 12.0001 5.838C15.4021 5.838 18.1621 8.598 18.1621 12C18.1621 15.404 15.4021 18.162 12.0001 18.162C8.59813 18.162 5.83814 15.404 5.83814 12ZM12 15.9998C9.79005 15.9998 8.00006 14.2098 8.00006 11.9998C8.00006 9.79181 9.79005 7.99981 12 7.99981C14.208 7.99981 16.002 9.78981 16.002 11.9998C16.002 14.2098 14.208 15.9998 12 15.9998ZM16.9641 5.59666C16.9641 4.80066 17.6101 4.15666 18.4041 4.15666C19.2021 4.15666 19.8461 4.80066 19.8461 5.59666C19.8461 6.39265 19.2001 7.03665 18.4041 7.03665C17.6081 7.03665 16.9641 6.39065 16.9641 5.59666Z" fill="#B3B9C0"/>
</svg>
