<svg width="50" height="50" viewBox="0 0 50 50" fill="none" xmlns="http://www.w3.org/2000/svg">
<path d="M25 50C38.8071 50 50 38.8071 50 25C50 11.1929 38.8071 0 25 0C11.1929 0 0 11.1929 0 25C0 38.8071 11.1929 50 25 50Z" fill="url(#paint0_linear_66_258)"/>
<path fill-rule="evenodd" clip-rule="evenodd" d="M25 16.6665C22.7361 16.6665 22.4541 16.6762 21.5638 16.7179C18.5361 16.8568 16.8555 18.5359 16.7166 21.5637C16.6763 22.454 16.6666 22.7373 16.6666 24.9998C16.6666 27.2637 16.6763 27.5471 16.7166 28.4359C16.8555 31.4623 18.5361 33.1443 21.5638 33.2832C22.4541 33.3235 22.7361 33.3332 25 33.3332C27.2638 33.3332 27.5472 33.3235 28.4375 33.2832C31.4597 33.1443 33.1472 31.4651 33.2833 28.4359C33.3236 27.5471 33.3333 27.2637 33.3333 24.9998C33.3333 22.7373 33.3236 22.454 33.2833 21.5637C33.1472 18.5401 31.4652 16.8554 28.4375 16.7179C27.5472 16.6762 27.2638 16.6665 25 16.6665ZM25 18.1691C27.225 18.1691 27.4889 18.1775 28.368 18.2178C30.6278 18.3205 31.6805 19.3914 31.7847 21.633C31.8236 22.5122 31.8319 22.7747 31.8319 24.9997C31.8319 27.2247 31.8236 27.4886 31.7847 28.3664C31.6805 30.6066 30.6291 31.6803 28.368 31.783C27.4889 31.8219 27.2264 31.8316 25 31.8316C22.775 31.8316 22.5111 31.8233 21.6333 31.783C19.3694 31.6789 18.3208 30.6039 18.2166 28.3664C18.1778 27.4886 18.168 27.2247 18.168 24.9997C18.168 22.7747 18.1778 22.5108 18.2166 21.633C18.3194 19.39 19.3722 18.3191 21.6333 18.2164C22.5111 18.1761 22.775 18.1691 25 18.1691ZM20.7209 24.9998C20.7209 22.6359 22.6375 20.7206 25 20.7206C27.3625 20.7206 29.2792 22.6373 29.2792 24.9998C29.2792 27.3637 27.3625 29.279 25 29.279C22.6375 29.279 20.7209 27.3637 20.7209 24.9998ZM25 27.7774C23.4653 27.7774 22.2222 26.5344 22.2222 24.9997C22.2222 23.4663 23.4653 22.2219 25 22.2219C26.5333 22.2219 27.7792 23.4649 27.7792 24.9997C27.7792 26.5344 26.5333 27.7774 25 27.7774ZM28.4473 20.553C28.4473 20.0002 28.8959 19.553 29.4473 19.553C30.0014 19.553 30.4487 20.0002 30.4487 20.553C30.4487 21.1058 30 21.553 29.4473 21.553C28.8945 21.553 28.4473 21.1044 28.4473 20.553Z" fill="black"/>
<defs>
<linearGradient id="paint0_linear_66_258" x1="0" y1="0" x2="51.6059" y2="1.71637" gradientUnits="userSpaceOnUse">
<stop stop-color="#00CCFF"/>
<stop offset="1" stop-color="#66FFCC"/>
</linearGradient>
</defs>
</svg>
