<svg width="40" height="40" viewBox="0 0 40 40" fill="none" xmlns="http://www.w3.org/2000/svg">
<path d="M34.9111 13.842C34.8942 12.5797 34.6579 11.3299 34.2127 10.1486C33.8266 9.15221 33.2369 8.24729 32.4813 7.49168C31.7257 6.73607 30.8208 6.14638 29.8244 5.76029C28.6583 5.32256 27.4263 5.08586 26.1811 5.06029C24.5777 4.98863 24.0694 4.96863 19.9994 4.96863C15.9294 4.96863 15.4077 4.96863 13.8161 5.06029C12.5713 5.08605 11.34 5.32274 10.1744 5.76029C9.17781 6.14611 8.27275 6.7357 7.51711 7.49135C6.76146 8.247 6.17187 9.15206 5.78605 10.1486C5.34744 11.3138 5.11126 12.5455 5.08772 13.7903C5.01605 15.3953 4.99438 15.9036 4.99438 19.9736C4.99438 24.0436 4.99438 24.5636 5.08772 26.157C5.11272 27.4036 5.34772 28.6336 5.78605 29.802C6.17251 30.7982 6.76254 31.7029 7.51844 32.4583C8.27434 33.2136 9.17949 33.8029 10.1761 34.1886C11.3384 34.644 12.57 34.8976 13.8177 34.9386C15.4227 35.0103 15.9311 35.032 20.0011 35.032C24.0711 35.032 24.5927 35.032 26.1844 34.9386C27.4296 34.9141 28.6617 34.678 29.8277 34.2403C30.8239 33.8538 31.7286 33.2639 32.4841 32.5084C33.2397 31.7528 33.8295 30.8481 34.2161 29.852C34.6544 28.6853 34.8894 27.4553 34.9144 26.207C34.986 24.6036 35.0077 24.0953 35.0077 20.0236C35.0044 15.9536 35.0044 15.437 34.9111 13.842ZM19.9894 27.6703C15.7327 27.6703 12.2844 24.222 12.2844 19.9653C12.2844 15.7086 15.7327 12.2603 19.9894 12.2603C22.0329 12.2603 23.9927 13.0721 25.4376 14.517C26.8826 15.962 27.6944 17.9218 27.6944 19.9653C27.6944 22.0088 26.8826 23.9686 25.4376 25.4136C23.9927 26.8585 22.0329 27.6703 19.9894 27.6703ZM28.0011 13.772C27.765 13.7722 27.5313 13.7259 27.3132 13.6356C27.0952 13.5454 26.897 13.4131 26.7301 13.2462C26.5632 13.0793 26.4309 12.8812 26.3407 12.6631C26.2505 12.445 26.2042 12.2113 26.2044 11.9753C26.2044 11.7395 26.2508 11.5059 26.3411 11.2881C26.4313 11.0702 26.5636 10.8722 26.7304 10.7054C26.8971 10.5387 27.0951 10.4064 27.313 10.3162C27.5309 10.2259 27.7644 10.1795 28.0002 10.1795C28.2361 10.1795 28.4696 10.2259 28.6875 10.3162C28.9053 10.4064 29.1033 10.5387 29.2701 10.7054C29.4368 10.8722 29.5691 11.0702 29.6594 11.2881C29.7496 11.5059 29.7961 11.7395 29.7961 11.9753C29.7961 12.9686 28.9927 13.772 28.0011 13.772Z" fill="white" fill-opacity="0.3"/>
<path d="M19.9895 24.9697C22.7537 24.9697 24.9945 22.7289 24.9945 19.9647C24.9945 17.2005 22.7537 14.9597 19.9895 14.9597C17.2253 14.9597 14.9845 17.2005 14.9845 19.9647C14.9845 22.7289 17.2253 24.9697 19.9895 24.9697Z" fill="white" fill-opacity="0.3"/>
</svg>
