<svg width="40" height="40" viewBox="0 0 40 40" fill="none" xmlns="http://www.w3.org/2000/svg">
<path d="M33.6 11.4C28.8 4 19 1.8 11.4 6.4C4.00005 11 1.60005 21 6.40005 28.4L6.80005 29L5.20005 35L11.2 33.4L11.8 33.8C14.4 35.2 17.2 36 20 36C23 36 26 35.2 28.6 33.6C36 28.8 38.2 19 33.6 11.4ZM29.4 26.8C28.6 28 27.6 28.8 26.2 29C25.4 29 24.4 29.4 20.4 27.8C17 26.2 14.2 23.6 12.2 20.6C11 19.2 10.4 17.4 10.2 15.6C10.2 14 10.8 12.6 11.8 11.6C12.2 11.2 12.6 11 13 11H14C14.4 11 14.8 11 15 11.8C15.4 12.8 16.4 15.2 16.4 15.4C16.6 15.6 16.6 16 16.4 16.2C16.6 16.6 16.4 17 16.2 17.2C16 17.4 15.8 17.8 15.6 18C15.2 18.2 15 18.6 15.2 19C16 20.2 17 21.4 18 22.4C19.2 23.4 20.4 24.2 21.8 24.8C22.2 25 22.6 25 22.8 24.6C23 24.2 24 23.2 24.4 22.8C24.8 22.4 25 22.4 25.4 22.6L28.6 24.2C29 24.4 29.4 24.6 29.6 24.8C29.8 25.4 29.8 26.2 29.4 26.8Z" fill="white" fill-opacity="0.3"/>
</svg>
