<svg width="182" height="17" viewBox="0 0 182 17" fill="none" xmlns="http://www.w3.org/2000/svg">
<path d="M8.13428 13.0352H4.64502C3.41748 13.0176 2.48438 12.7158 1.8457 12.1299C1.20996 11.5439 0.883301 10.6694 0.865723 9.50635C0.865723 9.32764 0.858398 9.14307 0.84375 8.95264C0.832031 8.76221 0.826172 8.62305 0.826172 8.53516C0.826172 8.4502 0.832031 8.31104 0.84375 8.11768C0.858398 7.92432 0.865723 7.73975 0.865723 7.56396C0.880371 6.86963 1.02393 6.26172 1.29639 5.74023C1.56885 5.21875 1.98633 4.81006 2.54883 4.51416C3.11133 4.21826 3.81006 4.07031 4.64502 4.07031H8.13428C8.95166 4.07031 9.56104 4.19629 9.9624 4.44824C10.3638 4.7002 10.6187 4.91113 10.7271 5.08105V0.506348H12.0234V13H10.7271V12.1343C10.5659 12.2837 10.2627 12.4712 9.81738 12.6968C9.37207 12.9224 8.81104 13.0352 8.13428 13.0352ZM10.7622 9.50635V7.56396C10.7446 6.84033 10.5 6.25732 10.0283 5.81494C9.55957 5.37256 8.86816 5.15137 7.9541 5.15137H5.07568C4.05908 5.15137 3.31934 5.35498 2.85645 5.76221C2.39355 6.1665 2.16211 6.76709 2.16211 7.56396V9.50635C2.16211 10.3354 2.39941 10.9448 2.87402 11.3345C3.34863 11.7241 4.08252 11.9189 5.07568 11.9189H7.9541C8.86816 11.9189 9.55957 11.6978 10.0283 11.2554C10.5 10.813 10.7446 10.23 10.7622 9.50635ZM14.5151 13V4.10986H15.8115V13H14.5151ZM14.5151 0.506348H15.8115V1.80273H14.5151V0.506348ZM18.2329 9.72607C18.2329 9.55322 18.2271 9.30127 18.2153 8.97021C18.2036 8.63916 18.1978 8.39893 18.1978 8.24951C18.1978 8.18213 18.2036 8.05469 18.2153 7.86719C18.2271 7.67969 18.2329 7.54199 18.2329 7.4541C18.2739 5.22461 19.4868 4.10986 21.8716 4.10986H25.6157C26.4302 4.10986 27.0337 4.23145 27.4263 4.47461C27.8188 4.71777 28.0664 4.91992 28.1689 5.08105V4.10986H29.4653V13.936C29.4653 15.855 28.2056 16.8145 25.686 16.8145H22.0869C21.3955 16.8145 20.792 16.7163 20.2764 16.52C19.7607 16.3267 19.3638 16.0513 19.0854 15.6938C18.8071 15.3364 18.668 14.9189 18.668 14.4414H20.0698C20.0698 14.7959 20.25 15.1006 20.6104 15.3555C20.9736 15.6104 21.5083 15.7378 22.2144 15.7378H25.5981C26.1519 15.7378 26.6221 15.6587 27.0088 15.5005C27.3984 15.3452 27.6885 15.1372 27.8789 14.8765C28.0723 14.6187 28.1689 14.3418 28.1689 14.0459V11.9541C28.1104 12.0977 27.98 12.2515 27.7778 12.4155C27.5786 12.5767 27.3018 12.7144 26.9473 12.8286C26.5957 12.9429 26.1753 13 25.686 13H21.9771C21.1362 12.9766 20.4419 12.8462 19.894 12.6089C19.3462 12.3687 18.9346 12.0112 18.6592 11.5366C18.3867 11.0591 18.2446 10.4556 18.2329 9.72607ZM28.2085 9.50635V7.56396C28.1909 6.84326 27.9536 6.26758 27.4966 5.83691C27.0396 5.40332 26.3525 5.18652 25.4355 5.18652H22.4824C21.4248 5.18652 20.6675 5.37549 20.2104 5.75342C19.7563 6.13135 19.5293 6.73486 19.5293 7.56396V9.50635C19.5293 10.3442 19.771 10.9565 20.2544 11.3433C20.7407 11.7271 21.4834 11.9189 22.4824 11.9189H25.4355C26.335 11.9189 27.0176 11.6963 27.4834 11.251C27.9492 10.8057 28.1909 10.2241 28.2085 9.50635ZM31.9175 13V4.10986H33.2139V13H31.9175ZM31.9175 0.506348H33.2139V1.80273H31.9175V0.506348ZM37.292 9.83154V5.15137H44.0068V4.07031H37.292V2.34326H35.9956V4.07031H34.8794V5.15137H35.9956V9.63379C35.9956 10.7471 36.2769 11.5864 36.8394 12.1519C37.4019 12.7173 38.1885 13 39.1992 13H41.0537C42.5625 13 43.5688 12.6514 44.0728 11.9541C44.5796 11.2568 44.833 10.4893 44.833 9.65137V9.40088H43.541V9.50635C43.541 9.95752 43.4854 10.356 43.374 10.7017C43.2627 11.0444 43.0151 11.333 42.6313 11.5674C42.2505 11.8018 41.6836 11.9189 40.9307 11.9189H39.1992C38.6309 11.9189 38.1709 11.7446 37.8193 11.396C37.4678 11.0444 37.292 10.5229 37.292 9.83154ZM46.0415 9.65137C46.0415 9.00977 46.27 8.50146 46.7271 8.12646C47.1841 7.75146 47.8784 7.56396 48.8101 7.56396H53.9956C54.6108 7.56396 55.0283 7.65186 55.248 7.82764C55.4707 8.00342 55.5938 8.1499 55.6172 8.26709V7.04102C55.6172 6.49609 55.4399 6.05078 55.0854 5.70508C54.731 5.35938 54.1875 5.18652 53.4551 5.18652H50.0186C49.0986 5.18652 48.5024 5.33008 48.23 5.61719C47.9575 5.9043 47.8213 6.14453 47.8213 6.33789V6.66309H46.4897V6.33789H46.4546C46.4546 6.15625 46.5205 5.89697 46.6523 5.56006C46.7871 5.22021 47.0947 4.89355 47.5752 4.58008C48.0557 4.2666 48.7617 4.10986 49.6934 4.10986H53.6001C55.8325 4.10986 56.9487 5.15283 56.9487 7.23877V13H55.6523V12.2793C55.5674 12.3994 55.3931 12.5503 55.1294 12.7319C54.8687 12.9106 54.5142 13 54.0659 13H49.0298C47.0376 13 46.0415 12.2441 46.0415 10.7324V9.65137ZM49.2803 8.64502C48.5127 8.64502 47.9971 8.74902 47.7334 8.95703C47.4697 9.16211 47.3379 9.49023 47.3379 9.94141V10.5874C47.3379 11.0151 47.48 11.3389 47.7642 11.5586C48.0483 11.7754 48.5537 11.8838 49.2803 11.8838H53.6704C54.353 11.8838 54.8481 11.7534 55.1558 11.4927C55.4634 11.2319 55.6172 10.8218 55.6172 10.2622C55.6172 9.18408 54.9683 8.64502 53.6704 8.64502H49.2803ZM59.5942 13V0.506348H60.8906V13H59.5942ZM63.2681 7.09814H68.9941V8.42969H63.2681V7.09814ZM70.9849 9.65137C70.9849 9.00977 71.2134 8.50146 71.6704 8.12646C72.1274 7.75146 72.8218 7.56396 73.7534 7.56396H78.939C79.5542 7.56396 79.9717 7.65186 80.1914 7.82764C80.4141 8.00342 80.5371 8.1499 80.5605 8.26709V7.04102C80.5605 6.49609 80.3833 6.05078 80.0288 5.70508C79.6743 5.35938 79.1309 5.18652 78.3984 5.18652H74.9619C74.042 5.18652 73.4458 5.33008 73.1733 5.61719C72.9009 5.9043 72.7646 6.14453 72.7646 6.33789V6.66309H71.4331V6.33789H71.3979C71.3979 6.15625 71.4639 5.89697 71.5957 5.56006C71.7305 5.22021 72.0381 4.89355 72.5186 4.58008C72.999 4.2666 73.7051 4.10986 74.6367 4.10986H78.5435C80.7759 4.10986 81.8921 5.15283 81.8921 7.23877V13H80.5957V12.2793C80.5107 12.3994 80.3364 12.5503 80.0728 12.7319C79.812 12.9106 79.4575 13 79.0093 13H73.9731C71.981 13 70.9849 12.2441 70.9849 10.7324V9.65137ZM74.2236 8.64502C73.4561 8.64502 72.9404 8.74902 72.6768 8.95703C72.4131 9.16211 72.2812 9.49023 72.2812 9.94141V10.5874C72.2812 11.0151 72.4233 11.3389 72.7075 11.5586C72.9917 11.7754 73.4971 11.8838 74.2236 11.8838H78.6138C79.2964 11.8838 79.7915 11.7534 80.0991 11.4927C80.4067 11.2319 80.5605 10.8218 80.5605 10.2622C80.5605 9.18408 79.9116 8.64502 78.6138 8.64502H74.2236ZM85.0386 13H83.7422V4.10986H92.2061V5.18652H85.0386V13ZM103.737 7.56396C103.737 7.06592 103.642 6.63672 103.452 6.27637C103.261 5.91309 102.986 5.63477 102.625 5.44141C102.265 5.24805 101.839 5.15137 101.347 5.15137H97.2773C96.8291 5.15137 96.4321 5.25098 96.0864 5.4502C95.7407 5.64941 95.4712 5.93066 95.2778 6.29395C95.0874 6.65723 94.9922 7.08057 94.9922 7.56396H103.737ZM94.9922 8.64502V9.50635C94.9922 11.1382 95.814 11.9541 97.4575 11.9541H101.685C102.365 11.9541 102.876 11.7988 103.219 11.4883C103.564 11.1748 103.737 10.791 103.737 10.3369V10.1567H105.034V10.3369C105.034 10.7588 104.933 11.1763 104.73 11.5894C104.528 11.9995 104.19 12.3438 103.715 12.6221C103.241 12.8975 102.624 13.0352 101.865 13.0352H97.5103C96.2271 13.0352 95.2705 12.7539 94.6406 12.1914C94.0107 11.626 93.6958 10.791 93.6958 9.68652V7.34863C93.6958 6.79199 93.8438 6.26172 94.1396 5.75781C94.4385 5.25391 94.875 4.84668 95.4492 4.53613C96.0234 4.22559 96.6987 4.07031 97.4751 4.07031H101.219C102.438 4.07031 103.378 4.37061 104.041 4.97119C104.703 5.57178 105.034 6.31592 105.034 7.20361V8.64502H94.9922ZM108.246 13H106.954V4.10986H108.246V7.74414H116.851V4.10986H118.147V13H116.851V8.8252H108.246V13ZM125.802 13H124.506V5.18652H119.646V4.10986H125.802H130.663V5.18652H125.802V13ZM135.686 5.15137C134.915 5.15137 134.32 5.34766 133.901 5.74023C133.482 6.12988 133.273 6.71436 133.273 7.49365V9.72607C133.273 10.4146 133.494 10.958 133.937 11.3564C134.382 11.7549 134.934 11.9541 135.593 11.9541H139.553C140.224 11.9541 140.742 11.8398 141.108 11.6113C141.478 11.3799 141.722 11.1206 141.842 10.8335C141.962 10.5464 142.022 10.2842 142.022 10.0469V9.8667H143.319V10.0117C143.319 10.6562 143.07 11.3213 142.572 12.0068C142.077 12.6924 141.078 13.0352 139.575 13.0352H135.576C134.372 13.0352 133.471 12.7437 132.873 12.1606C132.275 11.5747 131.977 10.7632 131.977 9.72607V7.49365C131.977 6.84326 132.113 6.25879 132.385 5.74023C132.661 5.22168 133.075 4.81445 133.629 4.51855C134.186 4.21973 134.871 4.07031 135.686 4.07031H139.575L139.61 4.10986C140.632 4.10986 141.42 4.29736 141.974 4.67236C142.528 5.04443 142.89 5.45166 143.06 5.89404C143.232 6.33643 143.319 6.72461 143.319 7.05859V7.20361H142.022V7.09814C142.022 6.66748 141.857 6.23535 141.526 5.80176C141.195 5.36816 140.544 5.15137 139.575 5.15137H135.686ZM150.71 13H149.414V5.18652H144.554V4.10986H150.71H155.571V5.18652H150.71V13ZM158.506 5.11621V7.92432H165.217C166.321 7.92432 166.874 7.51562 166.874 6.69824V6.33789C166.874 5.94238 166.727 5.64062 166.434 5.43262C166.141 5.22168 165.724 5.11621 165.182 5.11621H158.506ZM157.21 13V4.03516H165.001C166.065 4.03516 166.859 4.23877 167.383 4.646C167.908 5.05029 168.17 5.61426 168.17 6.33789V6.69824C168.17 7.16992 168.041 7.55664 167.783 7.8584C167.528 8.16016 167.19 8.35059 166.768 8.42969C167.313 8.55273 167.722 8.78418 167.994 9.12402C168.267 9.46387 168.403 9.84326 168.403 10.2622V10.6621C168.403 11.3975 168.139 11.9717 167.612 12.3848C167.084 12.7949 166.28 13 165.199 13H157.21ZM158.506 9.00537V11.8838H165.164C165.791 11.8838 166.271 11.7798 166.605 11.5718C166.942 11.3608 167.111 11.0576 167.111 10.6621V10.2622C167.111 9.84326 166.972 9.52979 166.693 9.32178C166.415 9.11084 165.839 9.00537 164.966 9.00537H158.506ZM170.209 7.56396C170.227 6.48584 170.544 5.63477 171.163 5.01074C171.784 4.38379 172.762 4.07031 174.098 4.07031H177.662C178.591 4.07031 179.344 4.22705 179.921 4.54053C180.498 4.854 180.91 5.27148 181.156 5.79297C181.405 6.31152 181.537 6.90186 181.551 7.56396V9.50635C181.537 10.1714 181.4 10.7676 181.143 11.2949C180.888 11.8223 180.47 12.2441 179.89 12.5605C179.313 12.877 178.57 13.0352 177.662 13.0352H174.098C171.541 13.0352 170.244 11.8589 170.209 9.50635C170.209 9.36279 170.203 9.18701 170.191 8.979C170.18 8.771 170.174 8.62305 170.174 8.53516C170.174 8.4502 170.18 8.30225 170.191 8.09131C170.203 7.88037 170.209 7.70459 170.209 7.56396ZM171.505 9.50635C171.505 11.1382 172.399 11.9541 174.186 11.9541H177.57C179.36 11.9541 180.255 11.1382 180.255 9.50635V7.56396C180.255 6.7876 180.023 6.19141 179.561 5.77539C179.101 5.35938 178.437 5.15137 177.57 5.15137H174.186C173.588 5.15137 173.095 5.2334 172.705 5.39746C172.315 5.56152 172.021 5.82227 171.822 6.17969C171.623 6.53418 171.517 6.99561 171.505 7.56396V9.50635Z" fill="url(#paint0_linear_37_6)"/>
<defs>
<linearGradient id="paint0_linear_37_6" x1="0" y1="-3" x2="323.622" y2="202.908" gradientUnits="userSpaceOnUse">
<stop stop-color="#00CCFF"/>
<stop offset="1" stop-color="#66FFCC"/>
</linearGradient>
</defs>
</svg>
