<svg class="icon" xmlns="http://www.w3.org/2000/svg">
    <symbol id="logo-text" width="182" height="17" viewBox="0 0 182 17" xmlns="http://www.w3.org/2000/svg">
        <path d="M8.13428 13.0352H4.64502C3.41748 13.0176 2.48438 12.7158 1.8457 12.1299C1.20996 11.5439 0.883301 10.6694 0.865723 9.50635C0.865723 9.32764 0.858398 9.14307 0.84375 8.95264C0.832031 8.76221 0.826172 8.62305 0.826172 8.53516C0.826172 8.4502 0.832031 8.31104 0.84375 8.11768C0.858398 7.92432 0.865723 7.73975 0.865723 7.56396C0.880371 6.86963 1.02393 6.26172 1.29639 5.74023C1.56885 5.21875 1.98633 4.81006 2.54883 4.51416C3.11133 4.21826 3.81006 4.07031 4.64502 4.07031H8.13428C8.95166 4.07031 9.56104 4.19629 9.9624 4.44824C10.3638 4.7002 10.6187 4.91113 10.7271 5.08105V0.506348H12.0234V13H10.7271V12.1343C10.5659 12.2837 10.2627 12.4712 9.81738 12.6968C9.37207 12.9224 8.81104 13.0352 8.13428 13.0352ZM10.7622 9.50635V7.56396C10.7446 6.84033 10.5 6.25732 10.0283 5.81494C9.55957 5.37256 8.86816 5.15137 7.9541 5.15137H5.07568C4.05908 5.15137 3.31934 5.35498 2.85645 5.76221C2.39355 6.1665 2.16211 6.76709 2.16211 7.56396V9.50635C2.16211 10.3354 2.39941 10.9448 2.87402 11.3345C3.34863 11.7241 4.08252 11.9189 5.07568 11.9189H7.9541C8.86816 11.9189 9.55957 11.6978 10.0283 11.2554C10.5 10.813 10.7446 10.23 10.7622 9.50635ZM14.5151 13V4.10986H15.8115V13H14.5151ZM14.5151 0.506348H15.8115V1.80273H14.5151V0.506348ZM18.2329 9.72607C18.2329 9.55322 18.2271 9.30127 18.2153 8.97021C18.2036 8.63916 18.1978 8.39893 18.1978 8.24951C18.1978 8.18213 18.2036 8.05469 18.2153 7.86719C18.2271 7.67969 18.2329 7.54199 18.2329 7.4541C18.2739 5.22461 19.4868 4.10986 21.8716 4.10986H25.6157C26.4302 4.10986 27.0337 4.23145 27.4263 4.47461C27.8188 4.71777 28.0664 4.91992 28.1689 5.08105V4.10986H29.4653V13.936C29.4653 15.855 28.2056 16.8145 25.686 16.8145H22.0869C21.3955 16.8145 20.792 16.7163 20.2764 16.52C19.7607 16.3267 19.3638 16.0513 19.0854 15.6938C18.8071 15.3364 18.668 14.9189 18.668 14.4414H20.0698C20.0698 14.7959 20.25 15.1006 20.6104 15.3555C20.9736 15.6104 21.5083 15.7378 22.2144 15.7378H25.5981C26.1519 15.7378 26.6221 15.6587 27.0088 15.5005C27.3984 15.3452 27.6885 15.1372 27.8789 14.8765C28.0723 14.6187 28.1689 14.3418 28.1689 14.0459V11.9541C28.1104 12.0977 27.98 12.2515 27.7778 12.4155C27.5786 12.5767 27.3018 12.7144 26.9473 12.8286C26.5957 12.9429 26.1753 13 25.686 13H21.9771C21.1362 12.9766 20.4419 12.8462 19.894 12.6089C19.3462 12.3687 18.9346 12.0112 18.6592 11.5366C18.3867 11.0591 18.2446 10.4556 18.2329 9.72607ZM28.2085 9.50635V7.56396C28.1909 6.84326 27.9536 6.26758 27.4966 5.83691C27.0396 5.40332 26.3525 5.18652 25.4355 5.18652H22.4824C21.4248 5.18652 20.6675 5.37549 20.2104 5.75342C19.7563 6.13135 19.5293 6.73486 19.5293 7.56396V9.50635C19.5293 10.3442 19.771 10.9565 20.2544 11.3433C20.7407 11.7271 21.4834 11.9189 22.4824 11.9189H25.4355C26.335 11.9189 27.0176 11.6963 27.4834 11.251C27.9492 10.8057 28.1909 10.2241 28.2085 9.50635ZM31.9175 13V4.10986H33.2139V13H31.9175ZM31.9175 0.506348H33.2139V1.80273H31.9175V0.506348ZM37.292 9.83154V5.15137H44.0068V4.07031H37.292V2.34326H35.9956V4.07031H34.8794V5.15137H35.9956V9.63379C35.9956 10.7471 36.2769 11.5864 36.8394 12.1519C37.4019 12.7173 38.1885 13 39.1992 13H41.0537C42.5625 13 43.5688 12.6514 44.0728 11.9541C44.5796 11.2568 44.833 10.4893 44.833 9.65137V9.40088H43.541V9.50635C43.541 9.95752 43.4854 10.356 43.374 10.7017C43.2627 11.0444 43.0151 11.333 42.6313 11.5674C42.2505 11.8018 41.6836 11.9189 40.9307 11.9189H39.1992C38.6309 11.9189 38.1709 11.7446 37.8193 11.396C37.4678 11.0444 37.292 10.5229 37.292 9.83154ZM46.0415 9.65137C46.0415 9.00977 46.27 8.50146 46.7271 8.12646C47.1841 7.75146 47.8784 7.56396 48.8101 7.56396H53.9956C54.6108 7.56396 55.0283 7.65186 55.248 7.82764C55.4707 8.00342 55.5938 8.1499 55.6172 8.26709V7.04102C55.6172 6.49609 55.4399 6.05078 55.0854 5.70508C54.731 5.35938 54.1875 5.18652 53.4551 5.18652H50.0186C49.0986 5.18652 48.5024 5.33008 48.23 5.61719C47.9575 5.9043 47.8213 6.14453 47.8213 6.33789V6.66309H46.4897V6.33789H46.4546C46.4546 6.15625 46.5205 5.89697 46.6523 5.56006C46.7871 5.22021 47.0947 4.89355 47.5752 4.58008C48.0557 4.2666 48.7617 4.10986 49.6934 4.10986H53.6001C55.8325 4.10986 56.9487 5.15283 56.9487 7.23877V13H55.6523V12.2793C55.5674 12.3994 55.3931 12.5503 55.1294 12.7319C54.8687 12.9106 54.5142 13 54.0659 13H49.0298C47.0376 13 46.0415 12.2441 46.0415 10.7324V9.65137ZM49.2803 8.64502C48.5127 8.64502 47.9971 8.74902 47.7334 8.95703C47.4697 9.16211 47.3379 9.49023 47.3379 9.94141V10.5874C47.3379 11.0151 47.48 11.3389 47.7642 11.5586C48.0483 11.7754 48.5537 11.8838 49.2803 11.8838H53.6704C54.353 11.8838 54.8481 11.7534 55.1558 11.4927C55.4634 11.2319 55.6172 10.8218 55.6172 10.2622C55.6172 9.18408 54.9683 8.64502 53.6704 8.64502H49.2803ZM59.5942 13V0.506348H60.8906V13H59.5942ZM63.2681 7.09814H68.9941V8.42969H63.2681V7.09814ZM70.9849 9.65137C70.9849 9.00977 71.2134 8.50146 71.6704 8.12646C72.1274 7.75146 72.8218 7.56396 73.7534 7.56396H78.939C79.5542 7.56396 79.9717 7.65186 80.1914 7.82764C80.4141 8.00342 80.5371 8.1499 80.5605 8.26709V7.04102C80.5605 6.49609 80.3833 6.05078 80.0288 5.70508C79.6743 5.35938 79.1309 5.18652 78.3984 5.18652H74.9619C74.042 5.18652 73.4458 5.33008 73.1733 5.61719C72.9009 5.9043 72.7646 6.14453 72.7646 6.33789V6.66309H71.4331V6.33789H71.3979C71.3979 6.15625 71.4639 5.89697 71.5957 5.56006C71.7305 5.22021 72.0381 4.89355 72.5186 4.58008C72.999 4.2666 73.7051 4.10986 74.6367 4.10986H78.5435C80.7759 4.10986 81.8921 5.15283 81.8921 7.23877V13H80.5957V12.2793C80.5107 12.3994 80.3364 12.5503 80.0728 12.7319C79.812 12.9106 79.4575 13 79.0093 13H73.9731C71.981 13 70.9849 12.2441 70.9849 10.7324V9.65137ZM74.2236 8.64502C73.4561 8.64502 72.9404 8.74902 72.6768 8.95703C72.4131 9.16211 72.2812 9.49023 72.2812 9.94141V10.5874C72.2812 11.0151 72.4233 11.3389 72.7075 11.5586C72.9917 11.7754 73.4971 11.8838 74.2236 11.8838H78.6138C79.2964 11.8838 79.7915 11.7534 80.0991 11.4927C80.4067 11.2319 80.5605 10.8218 80.5605 10.2622C80.5605 9.18408 79.9116 8.64502 78.6138 8.64502H74.2236ZM85.0386 13H83.7422V4.10986H92.2061V5.18652H85.0386V13ZM103.737 7.56396C103.737 7.06592 103.642 6.63672 103.452 6.27637C103.261 5.91309 102.986 5.63477 102.625 5.44141C102.265 5.24805 101.839 5.15137 101.347 5.15137H97.2773C96.8291 5.15137 96.4321 5.25098 96.0864 5.4502C95.7407 5.64941 95.4712 5.93066 95.2778 6.29395C95.0874 6.65723 94.9922 7.08057 94.9922 7.56396H103.737ZM94.9922 8.64502V9.50635C94.9922 11.1382 95.814 11.9541 97.4575 11.9541H101.685C102.365 11.9541 102.876 11.7988 103.219 11.4883C103.564 11.1748 103.737 10.791 103.737 10.3369V10.1567H105.034V10.3369C105.034 10.7588 104.933 11.1763 104.73 11.5894C104.528 11.9995 104.19 12.3438 103.715 12.6221C103.241 12.8975 102.624 13.0352 101.865 13.0352H97.5103C96.2271 13.0352 95.2705 12.7539 94.6406 12.1914C94.0107 11.626 93.6958 10.791 93.6958 9.68652V7.34863C93.6958 6.79199 93.8438 6.26172 94.1396 5.75781C94.4385 5.25391 94.875 4.84668 95.4492 4.53613C96.0234 4.22559 96.6987 4.07031 97.4751 4.07031H101.219C102.438 4.07031 103.378 4.37061 104.041 4.97119C104.703 5.57178 105.034 6.31592 105.034 7.20361V8.64502H94.9922ZM108.246 13H106.954V4.10986H108.246V7.74414H116.851V4.10986H118.147V13H116.851V8.8252H108.246V13ZM125.802 13H124.506V5.18652H119.646V4.10986H125.802H130.663V5.18652H125.802V13ZM135.686 5.15137C134.915 5.15137 134.32 5.34766 133.901 5.74023C133.482 6.12988 133.273 6.71436 133.273 7.49365V9.72607C133.273 10.4146 133.494 10.958 133.937 11.3564C134.382 11.7549 134.934 11.9541 135.593 11.9541H139.553C140.224 11.9541 140.742 11.8398 141.108 11.6113C141.478 11.3799 141.722 11.1206 141.842 10.8335C141.962 10.5464 142.022 10.2842 142.022 10.0469V9.8667H143.319V10.0117C143.319 10.6562 143.07 11.3213 142.572 12.0068C142.077 12.6924 141.078 13.0352 139.575 13.0352H135.576C134.372 13.0352 133.471 12.7437 132.873 12.1606C132.275 11.5747 131.977 10.7632 131.977 9.72607V7.49365C131.977 6.84326 132.113 6.25879 132.385 5.74023C132.661 5.22168 133.075 4.81445 133.629 4.51855C134.186 4.21973 134.871 4.07031 135.686 4.07031H139.575L139.61 4.10986C140.632 4.10986 141.42 4.29736 141.974 4.67236C142.528 5.04443 142.89 5.45166 143.06 5.89404C143.232 6.33643 143.319 6.72461 143.319 7.05859V7.20361H142.022V7.09814C142.022 6.66748 141.857 6.23535 141.526 5.80176C141.195 5.36816 140.544 5.15137 139.575 5.15137H135.686ZM150.71 13H149.414V5.18652H144.554V4.10986H150.71H155.571V5.18652H150.71V13ZM158.506 5.11621V7.92432H165.217C166.321 7.92432 166.874 7.51562 166.874 6.69824V6.33789C166.874 5.94238 166.727 5.64062 166.434 5.43262C166.141 5.22168 165.724 5.11621 165.182 5.11621H158.506ZM157.21 13V4.03516H165.001C166.065 4.03516 166.859 4.23877 167.383 4.646C167.908 5.05029 168.17 5.61426 168.17 6.33789V6.69824C168.17 7.16992 168.041 7.55664 167.783 7.8584C167.528 8.16016 167.19 8.35059 166.768 8.42969C167.313 8.55273 167.722 8.78418 167.994 9.12402C168.267 9.46387 168.403 9.84326 168.403 10.2622V10.6621C168.403 11.3975 168.139 11.9717 167.612 12.3848C167.084 12.7949 166.28 13 165.199 13H157.21ZM158.506 9.00537V11.8838H165.164C165.791 11.8838 166.271 11.7798 166.605 11.5718C166.942 11.3608 167.111 11.0576 167.111 10.6621V10.2622C167.111 9.84326 166.972 9.52979 166.693 9.32178C166.415 9.11084 165.839 9.00537 164.966 9.00537H158.506ZM170.209 7.56396C170.227 6.48584 170.544 5.63477 171.163 5.01074C171.784 4.38379 172.762 4.07031 174.098 4.07031H177.662C178.591 4.07031 179.344 4.22705 179.921 4.54053C180.498 4.854 180.91 5.27148 181.156 5.79297C181.405 6.31152 181.537 6.90186 181.551 7.56396V9.50635C181.537 10.1714 181.4 10.7676 181.143 11.2949C180.888 11.8223 180.47 12.2441 179.89 12.5605C179.313 12.877 178.57 13.0352 177.662 13.0352H174.098C171.541 13.0352 170.244 11.8589 170.209 9.50635C170.209 9.36279 170.203 9.18701 170.191 8.979C170.18 8.771 170.174 8.62305 170.174 8.53516C170.174 8.4502 170.18 8.30225 170.191 8.09131C170.203 7.88037 170.209 7.70459 170.209 7.56396ZM171.505 9.50635C171.505 11.1382 172.399 11.9541 174.186 11.9541H177.57C179.36 11.9541 180.255 11.1382 180.255 9.50635V7.56396C180.255 6.7876 180.023 6.19141 179.561 5.77539C179.101 5.35938 178.437 5.15137 177.57 5.15137H174.186C173.588 5.15137 173.095 5.2334 172.705 5.39746C172.315 5.56152 172.021 5.82227 171.822 6.17969C171.623 6.53418 171.517 6.99561 171.505 7.56396V9.50635Z" fill="url(#paint0_linear_37_6)"/>
        <defs>
        <linearGradient id="paint0_linear_37_6" x1="0" y1="-3" x2="323.622" y2="202.908" gradientUnits="userSpaceOnUse">
            <stop stop-color="#00CCFF"/>
            <stop offset="1" stop-color="#66FFCC"/>
        </linearGradient>
        </defs>
    </symbol>
    <symbol id="instagram" width="40" height="40" viewBox="0 0 40 40" fill="none" xmlns="http://www.w3.org/2000/svg">
        <path d="M34.9111 13.842C34.8942 12.5797 34.6579 11.3299 34.2127 10.1486C33.8266 9.15221 33.2369 8.24729 32.4813 7.49168C31.7257 6.73607 30.8208 6.14638 29.8244 5.76029C28.6583 5.32256 27.4263 5.08586 26.1811 5.06029C24.5777 4.98863 24.0694 4.96863 19.9994 4.96863C15.9294 4.96863 15.4077 4.96863 13.8161 5.06029C12.5713 5.08605 11.34 5.32274 10.1744 5.76029C9.17781 6.14611 8.27275 6.7357 7.51711 7.49135C6.76146 8.247 6.17187 9.15206 5.78605 10.1486C5.34744 11.3138 5.11126 12.5455 5.08772 13.7903C5.01605 15.3953 4.99438 15.9036 4.99438 19.9736C4.99438 24.0436 4.99438 24.5636 5.08772 26.157C5.11272 27.4036 5.34772 28.6336 5.78605 29.802C6.17251 30.7982 6.76254 31.7029 7.51844 32.4583C8.27434 33.2136 9.17949 33.8029 10.1761 34.1886C11.3384 34.644 12.57 34.8976 13.8177 34.9386C15.4227 35.0103 15.9311 35.032 20.0011 35.032C24.0711 35.032 24.5927 35.032 26.1844 34.9386C27.4296 34.9141 28.6617 34.678 29.8277 34.2403C30.8239 33.8538 31.7286 33.2639 32.4841 32.5084C33.2397 31.7528 33.8295 30.8481 34.2161 29.852C34.6544 28.6853 34.8894 27.4553 34.9144 26.207C34.986 24.6036 35.0077 24.0953 35.0077 20.0236C35.0044 15.9536 35.0044 15.437 34.9111 13.842ZM19.9894 27.6703C15.7327 27.6703 12.2844 24.222 12.2844 19.9653C12.2844 15.7086 15.7327 12.2603 19.9894 12.2603C22.0329 12.2603 23.9927 13.0721 25.4376 14.517C26.8826 15.962 27.6944 17.9218 27.6944 19.9653C27.6944 22.0088 26.8826 23.9686 25.4376 25.4136C23.9927 26.8585 22.0329 27.6703 19.9894 27.6703ZM28.0011 13.772C27.765 13.7722 27.5313 13.7259 27.3132 13.6356C27.0952 13.5454 26.897 13.4131 26.7301 13.2462C26.5632 13.0793 26.4309 12.8812 26.3407 12.6631C26.2505 12.445 26.2042 12.2113 26.2044 11.9753C26.2044 11.7395 26.2508 11.5059 26.3411 11.2881C26.4313 11.0702 26.5636 10.8722 26.7304 10.7054C26.8971 10.5387 27.0951 10.4064 27.313 10.3162C27.5309 10.2259 27.7644 10.1795 28.0002 10.1795C28.2361 10.1795 28.4696 10.2259 28.6875 10.3162C28.9053 10.4064 29.1033 10.5387 29.2701 10.7054C29.4368 10.8722 29.5691 11.0702 29.6594 11.2881C29.7496 11.5059 29.7961 11.7395 29.7961 11.9753C29.7961 12.9686 28.9927 13.772 28.0011 13.772Z" fill="white" fill-opacity="0.3"/>
        <path d="M19.9895 24.9697C22.7537 24.9697 24.9945 22.7289 24.9945 19.9647C24.9945 17.2005 22.7537 14.9597 19.9895 14.9597C17.2253 14.9597 14.9845 17.2005 14.9845 19.9647C14.9845 22.7289 17.2253 24.9697 19.9895 24.9697Z" fill="white" fill-opacity="0.3"/>
    </symbol>
    <symbol id="whatsapp" width="40" height="40" viewBox="0 0 40 40" fill="none" xmlns="http://www.w3.org/2000/svg">
        <path d="M33.6 11.4C28.8 4 19 1.8 11.4 6.4C4.00005 11 1.60005 21 6.40005 28.4L6.80005 29L5.20005 35L11.2 33.4L11.8 33.8C14.4 35.2 17.2 36 20 36C23 36 26 35.2 28.6 33.6C36 28.8 38.2 19 33.6 11.4ZM29.4 26.8C28.6 28 27.6 28.8 26.2 29C25.4 29 24.4 29.4 20.4 27.8C17 26.2 14.2 23.6 12.2 20.6C11 19.2 10.4 17.4 10.2 15.6C10.2 14 10.8 12.6 11.8 11.6C12.2 11.2 12.6 11 13 11H14C14.4 11 14.8 11 15 11.8C15.4 12.8 16.4 15.2 16.4 15.4C16.6 15.6 16.6 16 16.4 16.2C16.6 16.6 16.4 17 16.2 17.2C16 17.4 15.8 17.8 15.6 18C15.2 18.2 15 18.6 15.2 19C16 20.2 17 21.4 18 22.4C19.2 23.4 20.4 24.2 21.8 24.8C22.2 25 22.6 25 22.8 24.6C23 24.2 24 23.2 24.4 22.8C24.8 22.4 25 22.4 25.4 22.6L28.6 24.2C29 24.4 29.4 24.6 29.6 24.8C29.8 25.4 29.8 26.2 29.4 26.8Z" fill="white" fill-opacity="0.3"/>
    </symbol>
    <symbol id="graphic-design" width="110" height="110" viewBox="0 0 110 110" xmlns="http://www.w3.org/2000/svg">
        <g filter="url(#filter0_ii_2_99)">
            <path d="M6.37162 55.5034C6.13125 55.263 5.82499 55.0993 5.49158 55.033C5.15817 54.9667 4.81257 55.0007 4.4985 55.1308C4.18444 55.2609 3.916 55.4812 3.72714 55.7639C3.53828 56.0465 3.43749 56.3788 3.4375 56.7188V104.844C3.4375 105.3 3.61858 105.737 3.94091 106.059C4.26324 106.381 4.70041 106.563 5.15625 106.563H53.2812C53.6212 106.563 53.9535 106.462 54.2362 106.273C54.5188 106.084 54.7391 105.816 54.8692 105.501C54.9993 105.187 55.0333 104.842 54.967 104.508C54.9007 104.175 54.737 103.869 54.4966 103.628L6.37162 55.5034ZM6.875 103.125V60.868L49.132 103.125H6.875Z" fill="url(#paint0_radial_2_99)"/>
            <path d="M15.4687 96.25H29.2187C29.5587 96.25 29.891 96.1492 30.1737 95.9603C30.4563 95.7715 30.6766 95.503 30.8067 95.189C30.9368 94.8749 30.9708 94.5293 30.9045 94.1959C30.8382 93.8625 30.6745 93.5562 30.4341 93.3159L16.6841 79.5659C16.4437 79.3255 16.1375 79.1618 15.8041 79.0955C15.4707 79.0291 15.1251 79.0632 14.811 79.1933C14.4969 79.3234 14.2285 79.5437 14.0396 79.8263C13.8508 80.109 13.75 80.4413 13.75 80.7812V94.5312C13.75 94.9871 13.9311 95.4242 14.2534 95.7466C14.5757 96.0689 15.0129 96.25 15.4687 96.25ZM17.1875 84.9307L25.0695 92.8125H17.1875V84.9307Z" fill="url(#paint1_radial_2_99)"/>
            <path d="M22.3438 10.3125H25.7812V13.75H22.3438V10.3125Z" fill="url(#paint2_radial_2_99)"/>
            <path d="M29.2188 10.3125H32.6562V13.75H29.2188V10.3125Z" fill="url(#paint3_radial_2_99)"/>
            <path d="M36.0938 10.3125H39.5312V13.75H36.0938V10.3125Z" fill="url(#paint4_radial_2_99)"/>
            <path d="M38.8343 34.5254C38.5287 34.6575 38.2688 34.8767 38.0871 35.1556C37.9053 35.4346 37.8098 35.7609 37.8125 36.0938V55C37.8125 55.3325 37.9089 55.6579 38.0901 55.9367C38.2712 56.2155 38.5294 56.4357 38.8332 56.5708L54.302 63.4458C54.5218 63.5437 54.7597 63.5942 55.0004 63.594C55.241 63.5938 55.4789 63.5428 55.6985 63.4445V63.4458L71.1672 56.5708C71.471 56.4357 71.729 56.2154 71.9101 55.9366C72.0912 55.6578 72.1876 55.3325 72.1875 55V36.0938C72.1902 35.7609 72.0947 35.4346 71.9129 35.1556C71.7312 34.8767 71.4713 34.6575 71.1657 34.5254V34.5231L55.697 27.6481C55.4771 27.5505 55.2392 27.5 54.9987 27.5C54.7582 27.5 54.5203 27.5505 54.3005 27.6481L38.8317 34.5231L38.8343 34.5254ZM53.2812 59.2303L41.25 53.8828V38.7385L53.2812 44.086V59.2303ZM68.75 53.8828L56.7188 59.2303V44.086L68.75 38.7387V53.8828ZM55 31.0995L66.2363 36.0938L55 41.0878L43.7637 36.0938L55 31.0995Z" fill="url(#paint5_radial_2_99)"/>
            <path d="M53.2812 68.75H56.7188V77.3438H53.2812V68.75Z" fill="url(#paint6_radial_2_99)"/>
            <path d="M53.2812 15.4688H56.7188V24.0625H53.2812V15.4688Z" fill="url(#paint7_radial_2_99)"/>
            <path d="M25.0309 32.499L26.5124 29.3984L33.7069 32.8361L32.2253 35.9367L25.0309 32.499Z" fill="url(#paint8_radial_2_99)"/>
            <path d="M76.2538 32.8113L83.4482 29.3736L84.9298 32.4742L77.7353 35.9119L76.2538 32.8113Z" fill="url(#paint9_radial_2_99)"/>
            <path d="M25.0302 60.3051L32.2246 56.8674L33.7062 59.968L26.5118 63.4057L25.0302 60.3051Z" fill="url(#paint10_radial_2_99)"/>
            <path d="M104.844 82.5H94.5312V55.712L104.635 45.6079C105.246 44.9969 105.731 44.2715 106.062 43.4731C106.392 42.6748 106.563 41.8192 106.563 40.9551C106.563 40.0909 106.392 39.2353 106.062 38.437C105.731 37.6386 105.246 36.9133 104.635 36.3023C104.024 35.6912 103.299 35.2066 102.5 34.8759C101.702 34.5452 100.847 34.375 99.9824 34.375C99.1183 34.3751 98.2626 34.5453 97.4643 34.876C96.666 35.2066 95.9406 35.6913 95.3296 36.3024L94.5312 37.1007V22.3438C94.5313 22.118 94.4868 21.8945 94.4004 21.686C94.3141 21.4775 94.1875 21.288 94.0279 21.1284L76.8404 3.94088C76.6808 3.78128 76.4913 3.65468 76.2827 3.56831C76.0742 3.48194 75.8507 3.43749 75.625 3.4375H22.3438C20.521 3.43955 18.7735 4.16453 17.4847 5.4534C16.1958 6.74227 15.4708 8.48977 15.4688 10.3125V60.1562H18.9062V10.3125C18.9073 9.40115 19.2698 8.52744 19.9143 7.88301C20.5587 7.23859 21.4324 6.87608 22.3438 6.875H73.9062V17.1875C73.9083 19.0102 74.6333 20.7577 75.9222 22.0466C77.211 23.3355 78.9585 24.0605 80.7812 24.0625H91.0938V40.538L64.0971 67.5346C63.8573 67.7746 63.6937 68.0802 63.6271 68.4129L61.9083 77.0067C61.8528 77.2841 61.8666 77.571 61.9486 77.8419C62.0306 78.1127 62.1782 78.3591 62.3783 78.5592C62.5784 78.7593 62.8248 78.9069 63.0956 78.9889C63.3665 79.0709 63.6534 79.0847 63.9308 79.0292L72.5246 77.3104C72.8573 77.2439 73.1629 77.0803 73.4029 76.8404L91.0938 59.1495V82.5H56.7188C56.2629 82.5 55.8257 82.6811 55.5034 83.0034C55.1811 83.3257 55 83.7629 55 84.2188V89.375H46.4062V92.8125H55V97.9688C55 98.4246 55.1811 98.8618 55.5034 99.1841C55.8257 99.5064 56.2629 99.6875 56.7188 99.6875H104.844C105.3 99.6875 105.737 99.5064 106.059 99.1841C106.381 98.8618 106.562 98.4246 106.562 97.9688V84.2188C106.562 83.7629 106.381 83.3257 106.059 83.0034C105.737 82.6811 105.3 82.5 104.844 82.5ZM77.3438 17.1875V9.30574L88.663 20.625H80.7812C79.8699 20.6239 78.9962 20.2614 78.3518 19.617C77.7073 18.9726 77.3448 18.0989 77.3438 17.1875ZM67.7432 68.75L94.5312 41.962L98.9755 46.4062L72.1875 73.1943L67.7432 68.75ZM99.9825 37.8125C100.604 37.8125 101.212 37.9969 101.728 38.3422C102.245 38.6876 102.648 39.1784 102.886 39.7526C103.124 40.3268 103.186 40.9587 103.065 41.5683C102.943 42.1779 102.644 42.7378 102.205 43.1774L101.406 43.9755L96.962 39.5312L97.7604 38.7329C98.0515 38.4401 98.3978 38.2081 98.7792 38.0501C99.1606 37.8921 99.5696 37.8113 99.9825 37.8125ZM66.368 72.2363L68.7012 74.5695L65.7852 75.1523L66.368 72.2363ZM103.125 96.25H58.4375V85.9375H61.875V89.375H65.3125V85.9375H68.75V89.375H72.1875V85.9375H75.625V89.375H79.0625V85.9375H82.5V89.375H85.9375V85.9375H89.375V89.375H92.8125V85.9375H96.25V89.375H99.6875V85.9375H103.125V96.25Z" fill="url(#paint11_radial_2_99)"/>
        </g>
        <defs>
            <filter id="filter0_ii_2_99" x="0" y="-0.5" width="110" height="111" filterUnits="userSpaceOnUse" color-interpolation-filters="sRGB">
                <feFlood flood-opacity="0" result="BackgroundImageFix"/>
                <feBlend mode="normal" in="SourceGraphic" in2="BackgroundImageFix" result="shape"/>
                <feColorMatrix in="SourceAlpha" type="matrix" values="0 0 0 0 0 0 0 0 0 0 0 0 0 0 0 0 0 0 127 0" result="hardAlpha"/>
                <feOffset dy="0.5"/>
                <feGaussianBlur stdDeviation="1"/>
                <feComposite in2="hardAlpha" operator="arithmetic" k2="-1" k3="1"/>
                <feColorMatrix type="matrix" values="0 0 0 0 0 0 0 0 0 0 0 0 0 0 0 0 0 0 0.6 0"/>
                <feBlend mode="normal" in2="shape" result="effect1_innerShadow_2_99"/>
                <feColorMatrix in="SourceAlpha" type="matrix" values="0 0 0 0 0 0 0 0 0 0 0 0 0 0 0 0 0 0 127 0" result="hardAlpha"/>
                <feOffset dy="-0.5"/>
                <feGaussianBlur stdDeviation="0.25"/>
                <feComposite in2="hardAlpha" operator="arithmetic" k2="-1" k3="1"/>
                <feColorMatrix type="matrix" values="0 0 0 0 1 0 0 0 0 1 0 0 0 0 1 0 0 0 0.1 0"/>
                <feBlend mode="normal" in2="effect1_innerShadow_2_99" result="effect2_innerShadow_2_99"/>
            </filter>
            <radialGradient id="paint0_radial_2_99" cx="0" cy="0" r="1" gradientUnits="userSpaceOnUse" gradientTransform="translate(3.14715 118.839) rotate(-46.6545) scale(121.547 142.995)">
                <stop/>
                <stop offset="0.906032" stop-color="#9CB1C4" stop-opacity="0"/>
            </radialGradient>
            <radialGradient id="paint1_radial_2_99" cx="0" cy="0" r="1" gradientUnits="userSpaceOnUse" gradientTransform="translate(13.6532 100.342) rotate(-46.6545) scale(40.5159 47.6651)">
                <stop/>
                <stop offset="0.906032" stop-color="#9CB1C4" stop-opacity="0"/>
            </radialGradient>
            <radialGradient id="paint2_radial_2_99" cx="0" cy="0" r="1" gradientUnits="userSpaceOnUse" gradientTransform="translate(22.3244 14.5684) rotate(-46.6545) scale(8.10316 9.53298)">
                <stop/>
                <stop offset="0.906032" stop-color="#9CB1C4" stop-opacity="0"/>
            </radialGradient>
            <radialGradient id="paint3_radial_2_99" cx="0" cy="0" r="1" gradientUnits="userSpaceOnUse" gradientTransform="translate(29.1994 14.5684) rotate(-46.6545) scale(8.10316 9.53298)">
                <stop/>
                <stop offset="0.906032" stop-color="#9CB1C4" stop-opacity="0"/>
            </radialGradient>
            <radialGradient id="paint4_radial_2_99" cx="0" cy="0" r="1" gradientUnits="userSpaceOnUse" gradientTransform="translate(36.0744 14.5684) rotate(-46.6545) scale(8.10316 9.53298)">
                <stop/>
                <stop offset="0.906032" stop-color="#9CB1C4" stop-opacity="0"/>
            </radialGradient>
            <radialGradient id="paint5_radial_2_99" cx="0" cy="0" r="1" gradientUnits="userSpaceOnUse" gradientTransform="translate(37.6189 72.1875) rotate(-48.0475) scale(83.1992 97.4892)">
                <stop/>
                <stop offset="0.906032" stop-color="#9CB1C4" stop-opacity="0"/>
            </radialGradient>
            <radialGradient id="paint6_radial_2_99" cx="0" cy="0" r="1" gradientUnits="userSpaceOnUse" gradientTransform="translate(53.2619 79.3898) rotate(-69.3164) scale(15.7471 12.2637)">
                <stop/>
                <stop offset="0.906032" stop-color="#9CB1C4" stop-opacity="0"/>
            </radialGradient>
            <radialGradient id="paint7_radial_2_99" cx="0" cy="0" r="1" gradientUnits="userSpaceOnUse" gradientTransform="translate(53.2619 26.1086) rotate(-69.3164) scale(15.7471 12.2637)">
                <stop/>
                <stop offset="0.906032" stop-color="#9CB1C4" stop-opacity="0"/>
            </radialGradient>
            <radialGradient id="paint8_radial_2_99" cx="0" cy="0" r="1" gradientUnits="userSpaceOnUse" gradientTransform="translate(33.9299 36.7726) rotate(-132.325) scale(14.7565 12.1386)">
                <stop/>
                <stop offset="0.906032" stop-color="#9CB1C4" stop-opacity="0"/>
            </radialGradient>
            <radialGradient id="paint9_radial_2_99" cx="0" cy="0" r="1" gradientUnits="userSpaceOnUse" gradientTransform="translate(78.0476 36.6695) rotate(-50.0819) scale(14.1827 12.6297)">
                <stop/>
                <stop offset="0.906032" stop-color="#9CB1C4" stop-opacity="0"/>
            </radialGradient>
            <radialGradient id="paint10_radial_2_99" cx="0" cy="0" r="1" gradientUnits="userSpaceOnUse" gradientTransform="translate(26.824 64.1633) rotate(-50.0818) scale(14.1827 12.6297)">
                <stop/>
                <stop offset="0.906032" stop-color="#9CB1C4" stop-opacity="0"/>
            </radialGradient>
            <radialGradient id="paint11_radial_2_99" cx="0" cy="0" r="1" gradientUnits="userSpaceOnUse" gradientTransform="translate(14.9558 122.604) rotate(-48.2259) scale(221.245 259.068)">
                <stop/>
                <stop offset="0.906032" stop-color="#9CB1C4" stop-opacity="0"/>
            </radialGradient>
        </defs>
    </symbol>
    <symbol id="number-01" width="71" height="24" viewBox="0 0 71 24" fill="none" xmlns="http://www.w3.org/2000/svg">
        <path d="M6.10547 9.27441V15.3672C6.10547 16.4242 6.22445 17.2293 6.4624 17.7827C6.70589 18.3361 7.1403 18.7262 7.76562 18.9531C8.39648 19.18 9.32894 19.299 10.563 19.3101H17.021C18.1942 19.299 19.0796 19.1911 19.6772 18.9863C20.2804 18.776 20.6955 18.397 20.9224 17.8491C21.1548 17.2957 21.271 16.4684 21.271 15.3672L21.3042 9.27441C21.3042 8.389 21.2433 7.68343 21.1216 7.15771C21.0054 6.62646 20.7923 6.21419 20.4824 5.9209C20.1781 5.62207 19.7575 5.41455 19.2207 5.29834C18.6895 5.1766 17.9673 5.11019 17.0542 5.09912H10.5962C9.37321 5.11019 8.44076 5.23747 7.79883 5.48096C7.16243 5.72445 6.71973 6.13672 6.4707 6.71777C6.22721 7.29883 6.10547 8.15104 6.10547 9.27441ZM26.9487 15.9399C26.9487 17.6222 26.8021 18.9836 26.5088 20.0239C26.2155 21.0588 25.7451 21.8612 25.0977 22.4312C24.4502 23.0011 23.5897 23.4023 22.5161 23.6348C21.4481 23.8617 20.0812 23.9834 18.4155 24H9.20166C7.4585 23.9834 6.0446 23.8534 4.95996 23.6099C3.87533 23.3664 3.00098 22.9513 2.33691 22.3647C1.67285 21.7782 1.19417 20.9702 0.900879 19.9409C0.607585 18.9116 0.460938 17.578 0.460938 15.9399V8.86768C0.460938 6.6818 0.715495 4.99398 1.22461 3.8042C1.73926 2.61442 2.62191 1.75944 3.87256 1.23926C5.12321 0.713542 6.89958 0.434082 9.20166 0.400879H18.4155C20.5737 0.434082 22.2699 0.719076 23.5039 1.25586C24.738 1.79264 25.6206 2.66423 26.1519 3.87061C26.6831 5.07699 26.9487 6.74268 26.9487 8.86768V15.9399ZM49.16 24H43.5154V5.47266H41.7806L35.4969 10.4033L32.5003 6.07861L39.8133 0.400879H49.16V24ZM63.4855 24V18.3555H70.0514V24H63.4855Z" fill="url(#paint0_linear_62_172)"/>
        <defs>
        <linearGradient id="paint0_linear_62_172" x1="-1" y1="-5" x2="75.1866" y2="-0.426619" gradientUnits="userSpaceOnUse">
        <stop stop-color="#00CCFF"/>
        <stop offset="1" stop-color="#66FFCC"/>
        </linearGradient>
        </defs>
    </symbol>
</svg>