<svg class="icon"  xmlns="http://www.w3.org/2000/svg">
    <symbol id="instagram" width="40" height="40" viewBox="0 0 40 40" fill="none" xmlns="http://www.w3.org/2000/svg">
        <path d="M34.9111 13.842C34.8942 12.5797 34.6579 11.3299 34.2127 10.1486C33.8266 9.15221 33.2369 8.24729 32.4813 7.49168C31.7257 6.73607 30.8208 6.14638 29.8244 5.76029C28.6583 5.32256 27.4263 5.08586 26.1811 5.06029C24.5777 4.98863 24.0694 4.96863 19.9994 4.96863C15.9294 4.96863 15.4077 4.96863 13.8161 5.06029C12.5713 5.08605 11.34 5.32274 10.1744 5.76029C9.17781 6.14611 8.27275 6.7357 7.51711 7.49135C6.76146 8.247 6.17187 9.15206 5.78605 10.1486C5.34744 11.3138 5.11126 12.5455 5.08772 13.7903C5.01605 15.3953 4.99438 15.9036 4.99438 19.9736C4.99438 24.0436 4.99438 24.5636 5.08772 26.157C5.11272 27.4036 5.34772 28.6336 5.78605 29.802C6.17251 30.7982 6.76254 31.7029 7.51844 32.4583C8.27434 33.2136 9.17949 33.8029 10.1761 34.1886C11.3384 34.644 12.57 34.8976 13.8177 34.9386C15.4227 35.0103 15.9311 35.032 20.0011 35.032C24.0711 35.032 24.5927 35.032 26.1844 34.9386C27.4296 34.9141 28.6617 34.678 29.8277 34.2403C30.8239 33.8538 31.7286 33.2639 32.4841 32.5084C33.2397 31.7528 33.8295 30.8481 34.2161 29.852C34.6544 28.6853 34.8894 27.4553 34.9144 26.207C34.986 24.6036 35.0077 24.0953 35.0077 20.0236C35.0044 15.9536 35.0044 15.437 34.9111 13.842ZM19.9894 27.6703C15.7327 27.6703 12.2844 24.222 12.2844 19.9653C12.2844 15.7086 15.7327 12.2603 19.9894 12.2603C22.0329 12.2603 23.9927 13.0721 25.4376 14.517C26.8826 15.962 27.6944 17.9218 27.6944 19.9653C27.6944 22.0088 26.8826 23.9686 25.4376 25.4136C23.9927 26.8585 22.0329 27.6703 19.9894 27.6703ZM28.0011 13.772C27.765 13.7722 27.5313 13.7259 27.3132 13.6356C27.0952 13.5454 26.897 13.4131 26.7301 13.2462C26.5632 13.0793 26.4309 12.8812 26.3407 12.6631C26.2505 12.445 26.2042 12.2113 26.2044 11.9753C26.2044 11.7395 26.2508 11.5059 26.3411 11.2881C26.4313 11.0702 26.5636 10.8722 26.7304 10.7054C26.8971 10.5387 27.0951 10.4064 27.313 10.3162C27.5309 10.2259 27.7644 10.1795 28.0002 10.1795C28.2361 10.1795 28.4696 10.2259 28.6875 10.3162C28.9053 10.4064 29.1033 10.5387 29.2701 10.7054C29.4368 10.8722 29.5691 11.0702 29.6594 11.2881C29.7496 11.5059 29.7961 11.7395 29.7961 11.9753C29.7961 12.9686 28.9927 13.772 28.0011 13.772Z" fill="white" fill-opacity="0.3"/>
        <path d="M19.9895 24.9697C22.7537 24.9697 24.9945 22.7289 24.9945 19.9647C24.9945 17.2005 22.7537 14.9597 19.9895 14.9597C17.2253 14.9597 14.9845 17.2005 14.9845 19.9647C14.9845 22.7289 17.2253 24.9697 19.9895 24.9697Z" fill="white" fill-opacity="0.3"/>
    </symbol>
    <symbol id="whatsapp" width="40" height="40" viewBox="0 0 40 40" fill="none" xmlns="http://www.w3.org/2000/svg">
        <path d="M33.6 11.4C28.8 4 19 1.8 11.4 6.4C4.00005 11 1.60005 21 6.40005 28.4L6.80005 29L5.20005 35L11.2 33.4L11.8 33.8C14.4 35.2 17.2 36 20 36C23 36 26 35.2 28.6 33.6C36 28.8 38.2 19 33.6 11.4ZM29.4 26.8C28.6 28 27.6 28.8 26.2 29C25.4 29 24.4 29.4 20.4 27.8C17 26.2 14.2 23.6 12.2 20.6C11 19.2 10.4 17.4 10.2 15.6C10.2 14 10.8 12.6 11.8 11.6C12.2 11.2 12.6 11 13 11H14C14.4 11 14.8 11 15 11.8C15.4 12.8 16.4 15.2 16.4 15.4C16.6 15.6 16.6 16 16.4 16.2C16.6 16.6 16.4 17 16.2 17.2C16 17.4 15.8 17.8 15.6 18C15.2 18.2 15 18.6 15.2 19C16 20.2 17 21.4 18 22.4C19.2 23.4 20.4 24.2 21.8 24.8C22.2 25 22.6 25 22.8 24.6C23 24.2 24 23.2 24.4 22.8C24.8 22.4 25 22.4 25.4 22.6L28.6 24.2C29 24.4 29.4 24.6 29.6 24.8C29.8 25.4 29.8 26.2 29.4 26.8Z" fill="white" fill-opacity="0.3"/>
    </symbol>
    <symbol id="closed-app" width="25" height="25" viewBox="0 0 25 25" fill="none" xmlns="http://www.w3.org/2000/svg">
        <path d="M17.0954 8.06449C17.5037 8.47277 17.5037 9.13471 17.0954 9.54299L13.9785 12.6599L16.7755 15.457C17.1838 15.8652 17.1838 16.5272 16.7755 16.9355C16.3673 17.3437 15.7053 17.3437 15.297 16.9355L12.5 14.1384L9.70297 16.9355C9.29469 17.3437 8.63275 17.3437 8.22447 16.9355C7.81619 16.5272 7.81619 15.8652 8.22447 15.457L11.0215 12.6599L7.90455 9.54299C7.49628 9.13471 7.49628 8.47277 7.90455 8.06449C8.31283 7.65622 8.97477 7.65622 9.38305 8.06449L12.5 11.1814L15.6169 8.06449C16.0252 7.65622 16.6872 7.65622 17.0954 8.06449Z" fill="white" fill-opacity="0.5"/>
        <path fill-rule="evenodd" clip-rule="evenodd" d="M4.13636 1C2.4042 1 1 2.4042 1 4.13636V20.8636C1 22.5958 2.4042 24 4.13636 24H20.8636C22.5958 24 24 22.5958 24 20.8636V4.13636C24 2.4042 22.5958 1 20.8636 1H4.13636ZM20.8636 3.09091H4.13636C3.55897 3.09091 3.09091 3.55897 3.09091 4.13636V20.8636C3.09091 21.441 3.55897 21.9091 4.13636 21.9091H20.8636C21.441 21.9091 21.9091 21.441 21.9091 20.8636V4.13636C21.9091 3.55897 21.441 3.09091 20.8636 3.09091Z" fill="white" fill-opacity="0.5"/>
    </symbol>
    <symbol id="instagram-feedback" width="24" height="24" viewBox="0 0 24 24" fill="none" xmlns="http://www.w3.org/2000/svg">
        <path fill-rule="evenodd" clip-rule="evenodd" d="M12 0C8.73998 0 8.33398 0.014 7.05198 0.0739998C2.69199 0.273999 0.271999 2.69199 0.0719998 7.05198C0.014 8.33398 0 8.74198 0 12C0 15.26 0.014 15.668 0.0719998 16.948C0.271999 21.3059 2.69199 23.7279 7.05198 23.9279C8.33398 23.9859 8.73998 23.9999 12 23.9999C15.26 23.9999 15.668 23.9859 16.95 23.9279C21.3019 23.7279 23.7319 21.3099 23.9279 16.948C23.9859 15.668 23.9999 15.26 23.9999 12C23.9999 8.74198 23.9859 8.33398 23.9279 7.05198C23.7319 2.69799 21.3099 0.271999 16.95 0.0739998C15.668 0.014 15.26 0 12 0ZM12 2.16389C15.204 2.16389 15.584 2.17589 16.85 2.23389C20.104 2.38189 21.62 3.92389 21.77 7.15188C21.826 8.41788 21.838 8.79588 21.838 11.9999C21.838 15.2039 21.826 15.5839 21.77 16.8479C21.62 20.0738 20.106 21.6198 16.85 21.7678C15.584 21.8238 15.206 21.8378 12 21.8378C8.79601 21.8378 8.41602 21.8258 7.15202 21.7678C3.89203 21.6178 2.38203 20.0698 2.23203 16.8479C2.17603 15.5839 2.16203 15.2039 2.16203 11.9999C2.16203 8.79588 2.17603 8.41588 2.23203 7.15188C2.38003 3.92189 3.89603 2.37989 7.15202 2.23189C8.41602 2.17389 8.79601 2.16389 12 2.16389ZM5.83814 12C5.83814 8.596 8.59813 5.838 12.0001 5.838C15.4021 5.838 18.1621 8.598 18.1621 12C18.1621 15.404 15.4021 18.162 12.0001 18.162C8.59813 18.162 5.83814 15.404 5.83814 12ZM12 15.9998C9.79005 15.9998 8.00006 14.2098 8.00006 11.9998C8.00006 9.79181 9.79005 7.99981 12 7.99981C14.208 7.99981 16.002 9.78981 16.002 11.9998C16.002 14.2098 14.208 15.9998 12 15.9998ZM16.9641 5.59666C16.9641 4.80066 17.6101 4.15666 18.4041 4.15666C19.2021 4.15666 19.8461 4.80066 19.8461 5.59666C19.8461 6.39265 19.2001 7.03665 18.4041 7.03665C17.6081 7.03665 16.9641 6.39065 16.9641 5.59666Z" fill="#B3B9C0"/>
    </symbol>
</svg>