<svg class="icon"  xmlns="http://www.w3.org/2000/svg">
    <symbol fill="none" xmlns="http://www.w3.org/2000/svg" viewBox="0 0 182 17" id="logo-txt">
        <path d="M8.134 13.035H4.645c-1.228-.017-2.16-.32-2.8-.905-.635-.586-.962-1.46-.98-2" 
        fill="url(#a)"></path>
        <defs>
        <linearGradient id="a" x1="0" y1="-3" x2="323.622" y2="202.908" gradientUnits="userSpaceOnUse">
            <stop stop-color="#0CF"></stop>
            <stop offset="1" stop-color="#6FC"></stop>
        </linearGradient>
        </defs>
    </symbol>
    <symbol id="instagram" width="40" height="40" viewBox="0 0 40 40" fill="none" xmlns="http://www.w3.org/2000/svg">
        <path d="M34.9111 13.842C34.8942 12.5797 34.6579 11.3299 34.2127 10.1486C33.8266 9.15221 33.2369 8.24729 32.4813 7.49168C31.7257 6.73607 30.8208 6.14638 29.8244 5.76029C28.6583 5.32256 27.4263 5.08586 26.1811 5.06029C24.5777 4.98863 24.0694 4.96863 19.9994 4.96863C15.9294 4.96863 15.4077 4.96863 13.8161 5.06029C12.5713 5.08605 11.34 5.32274 10.1744 5.76029C9.17781 6.14611 8.27275 6.7357 7.51711 7.49135C6.76146 8.247 6.17187 9.15206 5.78605 10.1486C5.34744 11.3138 5.11126 12.5455 5.08772 13.7903C5.01605 15.3953 4.99438 15.9036 4.99438 19.9736C4.99438 24.0436 4.99438 24.5636 5.08772 26.157C5.11272 27.4036 5.34772 28.6336 5.78605 29.802C6.17251 30.7982 6.76254 31.7029 7.51844 32.4583C8.27434 33.2136 9.17949 33.8029 10.1761 34.1886C11.3384 34.644 12.57 34.8976 13.8177 34.9386C15.4227 35.0103 15.9311 35.032 20.0011 35.032C24.0711 35.032 24.5927 35.032 26.1844 34.9386C27.4296 34.9141 28.6617 34.678 29.8277 34.2403C30.8239 33.8538 31.7286 33.2639 32.4841 32.5084C33.2397 31.7528 33.8295 30.8481 34.2161 29.852C34.6544 28.6853 34.8894 27.4553 34.9144 26.207C34.986 24.6036 35.0077 24.0953 35.0077 20.0236C35.0044 15.9536 35.0044 15.437 34.9111 13.842ZM19.9894 27.6703C15.7327 27.6703 12.2844 24.222 12.2844 19.9653C12.2844 15.7086 15.7327 12.2603 19.9894 12.2603C22.0329 12.2603 23.9927 13.0721 25.4376 14.517C26.8826 15.962 27.6944 17.9218 27.6944 19.9653C27.6944 22.0088 26.8826 23.9686 25.4376 25.4136C23.9927 26.8585 22.0329 27.6703 19.9894 27.6703ZM28.0011 13.772C27.765 13.7722 27.5313 13.7259 27.3132 13.6356C27.0952 13.5454 26.897 13.4131 26.7301 13.2462C26.5632 13.0793 26.4309 12.8812 26.3407 12.6631C26.2505 12.445 26.2042 12.2113 26.2044 11.9753C26.2044 11.7395 26.2508 11.5059 26.3411 11.2881C26.4313 11.0702 26.5636 10.8722 26.7304 10.7054C26.8971 10.5387 27.0951 10.4064 27.313 10.3162C27.5309 10.2259 27.7644 10.1795 28.0002 10.1795C28.2361 10.1795 28.4696 10.2259 28.6875 10.3162C28.9053 10.4064 29.1033 10.5387 29.2701 10.7054C29.4368 10.8722 29.5691 11.0702 29.6594 11.2881C29.7496 11.5059 29.7961 11.7395 29.7961 11.9753C29.7961 12.9686 28.9927 13.772 28.0011 13.772Z" fill="white" fill-opacity="0.3"/>
        <path d="M19.9895 24.9697C22.7537 24.9697 24.9945 22.7289 24.9945 19.9647C24.9945 17.2005 22.7537 14.9597 19.9895 14.9597C17.2253 14.9597 14.9845 17.2005 14.9845 19.9647C14.9845 22.7289 17.2253 24.9697 19.9895 24.9697Z" fill="white" fill-opacity="0.3"/>
    </symbol>
    <symbol id="whatsapp" width="40" height="40" viewBox="0 0 40 40" fill="none" xmlns="http://www.w3.org/2000/svg">
        <path d="M33.6 11.4C28.8 4 19 1.8 11.4 6.4C4.00005 11 1.60005 21 6.40005 28.4L6.80005 29L5.20005 35L11.2 33.4L11.8 33.8C14.4 35.2 17.2 36 20 36C23 36 26 35.2 28.6 33.6C36 28.8 38.2 19 33.6 11.4ZM29.4 26.8C28.6 28 27.6 28.8 26.2 29C25.4 29 24.4 29.4 20.4 27.8C17 26.2 14.2 23.6 12.2 20.6C11 19.2 10.4 17.4 10.2 15.6C10.2 14 10.8 12.6 11.8 11.6C12.2 11.2 12.6 11 13 11H14C14.4 11 14.8 11 15 11.8C15.4 12.8 16.4 15.2 16.4 15.4C16.6 15.6 16.6 16 16.4 16.2C16.6 16.6 16.4 17 16.2 17.2C16 17.4 15.8 17.8 15.6 18C15.2 18.2 15 18.6 15.2 19C16 20.2 17 21.4 18 22.4C19.2 23.4 20.4 24.2 21.8 24.8C22.2 25 22.6 25 22.8 24.6C23 24.2 24 23.2 24.4 22.8C24.8 22.4 25 22.4 25.4 22.6L28.6 24.2C29 24.4 29.4 24.6 29.6 24.8C29.8 25.4 29.8 26.2 29.4 26.8Z" fill="white" fill-opacity="0.3"/>
    </symbol>
    <symbol fill="none" xmlns="http://www.w3.org/2000/svg" viewBox="0 0 110 110" id="graphic-design">
        <g filter="url(#filter0_ii_2_99)">
        <path d="M6.37162 55.5034C6.13125 55.263 5.82499 55.0993 5.49158 55.033C5.15817 54.9667 4.81257 55.0007 4.4985 55.1308C4.18444 55.2609 3.916 55.4812 3.72714 55.7639C3.53828 56.0465 3.43749 56.3788 3.4375 56.7188V104.844C3.4375 105.3 3.61858 105.737 3.94091 106.059C4.26324 106.381 4.70041 106.563 5.15625 106.563H53.2812C53.6212 106.563 53.9535 106.462 54.2362 106.273C54.5188 106.084 54.7391 105.816 54.8692 105.501C54.9993 105.187 55.0333 104.842 54.967 104.508C54.9007 104.175 54.737 103.869 54.4966 103.628L6.37162 55.5034ZM6.875 103.125V60.868L49.132 103.125H6.875Z" fill="url(#paint0_radial_2_99)"></path>
        <path d="M15.4687 96.25H29.2187C29.5587 96.25 29.891 96.1492 30.1737 95.9603C30.4563 95.7715 30.6766 95.503 30.8067 95.189C30.9368 94.8749 30.9708 94.5293 30.9045 94.1959C30.8382 93.8625 30.6745 93.5562 30.4341 93.3159L16.6841 79.5659C16.4437 79.3255 16.1375 79.1618 15.8041 79.0955C15.4707 79.0291 15.1251 79.0632 14.811 79.1933C14.4969 79.3234 14.2285 79.5437 14.0396 79.8263C13.8508 80.109 13.75 80.4413 13.75 80.7812V94.5312C13.75 94.9871 13.9311 95.4242 14.2534 95.7466C14.5757 96.0689 15.0129 96.25 15.4687 96.25ZM17.1875 84.9307L25.0695 92.8125H17.1875V84.9307Z" fill="url(#paint1_radial_2_99)"></path>
        <path d="M22.3438 10.3125H25.7812V13.75H22.3438V10.3125Z" fill="url(#paint2_radial_2_99)"></path>
        <path d="M29.2188 10.3125H32.6562V13.75H29.2188V10.3125Z" fill="url(#paint3_radial_2_99)"></path>
        <path d="M36.0938 10.3125H39.5312V13.75H36.0938V10.3125Z" fill="url(#paint4_radial_2_99)"></path>
        <path d="M38.8343 34.5254C38.5287 34.6575 38.2688 34.8767 38.0871 35.1556C37.9053 35.4346 37.8098 35.7609 37.8125 36.0938V55C37.8125 55.3325 37.9089 55.6579 38.0901 55.9367C38.2712 56.2155 38.5294 56.4357 38.8332 56.5708L54.302 63.4458C54.5218 63.5437 54.7597 63.5942 55.0004 63.594C55.241 63.5938 55.4789 63.5428 55.6985 63.4445V63.4458L71.1672 56.5708C71.471 56.4357 71.729 56.2154 71.9101 55.9366C72.0912 55.6578 72.1876 55.3325 72.1875 55V36.0938C72.1902 35.7609 72.0947 35.4346 71.9129 35.1556C71.7312 34.8767 71.4713 34.6575 71.1657 34.5254V34.5231L55.697 27.6481C55.4771 27.5505 55.2392 27.5 54.9987 27.5C54.7582 27.5 54.5203 27.5505 54.3005 27.6481L38.8317 34.5231L38.8343 34.5254ZM53.2812 59.2303L41.25 53.8828V38.7385L53.2812 44.086V59.2303ZM68.75 53.8828L56.7188 59.2303V44.086L68.75 38.7387V53.8828ZM55 31.0995L66.2363 36.0938L55 41.0878L43.7637 36.0938L55 31.0995Z" fill="url(#paint5_radial_2_99)"></path>
        <path d="M53.2812 68.75H56.7188V77.3438H53.2812V68.75Z" fill="url(#paint6_radial_2_99)"></path>
        <path d="M53.2812 15.4688H56.7188V24.0625H53.2812V15.4688Z" fill="url(#paint7_radial_2_99)"></path>
        <path d="M25.0309 32.499L26.5124 29.3984L33.7069 32.8361L32.2253 35.9367L25.0309 32.499Z" fill="url(#paint8_radial_2_99)"></path>
        <path d="M76.2538 32.8113L83.4482 29.3736L84.9298 32.4742L77.7353 35.9119L76.2538 32.8113Z" fill="url(#paint9_radial_2_99)"></path>
        <path d="M25.0302 60.3051L32.2246 56.8674L33.7062 59.968L26.5118 63.4057L25.0302 60.3051Z" fill="url(#paint10_radial_2_99)"></path>
        <path d="M104.844 82.5H94.5312V55.712L104.635 45.6079C105.246 44.9969 105.731 44.2715 106.062 43.4731C106.392 42.6748 106.563 41.8192 106.563 40.9551C106.563 40.0909 106.392 39.2353 106.062 38.437C105.731 37.6386 105.246 36.9133 104.635 36.3023C104.024 35.6912 103.299 35.2066 102.5 34.8759C101.702 34.5452 100.847 34.375 99.9824 34.375C99.1183 34.3751 98.2626 34.5453 97.4643 34.876C96.666 35.2066 95.9406 35.6913 95.3296 36.3024L94.5312 37.1007V22.3438C94.5313 22.118 94.4868 21.8945 94.4004 21.686C94.3141 21.4775 94.1875 21.288 94.0279 21.1284L76.8404 3.94088C76.6808 3.78128 76.4913 3.65468 76.2827 3.56831C76.0742 3.48194 75.8507 3.43749 75.625 3.4375H22.3438C20.521 3.43955 18.7735 4.16453 17.4847 5.4534C16.1958 6.74227 15.4708 8.48977 15.4688 10.3125V60.1562H18.9062V10.3125C18.9073 9.40115 19.2698 8.52744 19.9143 7.88301C20.5587 7.23859 21.4324 6.87608 22.3438 6.875H73.9062V17.1875C73.9083 19.0102 74.6333 20.7577 75.9222 22.0466C77.211 23.3355 78.9585 24.0605 80.7812 24.0625H91.0938V40.538L64.0971 67.5346C63.8573 67.7746 63.6937 68.0802 63.6271 68.4129L61.9083 77.0067C61.8528 77.2841 61.8666 77.571 61.9486 77.8419C62.0306 78.1127 62.1782 78.3591 62.3783 78.5592C62.5784 78.7593 62.8248 78.9069 63.0956 78.9889C63.3665 79.0709 63.6534 79.0847 63.9308 79.0292L72.5246 77.3104C72.8573 77.2439 73.1629 77.0803 73.4029 76.8404L91.0938 59.1495V82.5H56.7188C56.2629 82.5 55.8257 82.6811 55.5034 83.0034C55.1811 83.3257 55 83.7629 55 84.2188V89.375H46.4062V92.8125H55V97.9688C55 98.4246 55.1811 98.8618 55.5034 99.1841C55.8257 99.5064 56.2629 99.6875 56.7188 99.6875H104.844C105.3 99.6875 105.737 99.5064 106.059 99.1841C106.381 98.8618 106.562 98.4246 106.562 97.9688V84.2188C106.562 83.7629 106.381 83.3257 106.059 83.0034C105.737 82.6811 105.3 82.5 104.844 82.5ZM77.3438 17.1875V9.30574L88.663 20.625H80.7812C79.8699 20.6239 78.9962 20.2614 78.3518 19.617C77.7073 18.9726 77.3448 18.0989 77.3438 17.1875ZM67.7432 68.75L94.5312 41.962L98.9755 46.4062L72.1875 73.1943L67.7432 68.75ZM99.9825 37.8125C100.604 37.8125 101.212 37.9969 101.728 38.3422C102.245 38.6876 102.648 39.1784 102.886 39.7526C103.124 40.3268 103.186 40.9587 103.065 41.5683C102.943 42.1779 102.644 42.7378 102.205 43.1774L101.406 43.9755L96.962 39.5312L97.7604 38.7329C98.0515 38.4401 98.3978 38.2081 98.7792 38.0501C99.1606 37.8921 99.5696 37.8113 99.9825 37.8125ZM66.368 72.2363L68.7012 74.5695L65.7852 75.1523L66.368 72.2363ZM103.125 96.25H58.4375V85.9375H61.875V89.375H65.3125V85.9375H68.75V89.375H72.1875V85.9375H75.625V89.375H79.0625V85.9375H82.5V89.375H85.9375V85.9375H89.375V89.375H92.8125V85.9375H96.25V89.375H99.6875V85.9375H103.125V96.25Z" fill="url(#paint11_radial_2_99)"></path>
        </g>
        <defs>
        <filter id="filter0_ii_2_99" x="0" y="-0.5" width="110" height="111" filterUnits="userSpaceOnUse" color-interpolation-filters="sRGB">
            <feFlood flood-opacity="0" result="BackgroundImageFix"></feFlood>
            <feBlend mode="normal" in="SourceGraphic" in2="BackgroundImageFix" result="shape"></feBlend>
            <feColorMatrix in="SourceAlpha" type="matrix" values="0 0 0 0 0 0 0 0 0 0 0 0 0 0 0 0 0 0 127 0" result="hardAlpha"></feColorMatrix>
            <feOffset dy="0.5"></feOffset>
            <feGaussianBlur stdDeviation="1"></feGaussianBlur>
            <feComposite in2="hardAlpha" operator="arithmetic" k2="-1" k3="1"></feComposite>
            <feColorMatrix type="matrix" values="0 0 0 0 0 0 0 0 0 0 0 0 0 0 0 0 0 0 0.6 0"></feColorMatrix>
            <feBlend mode="normal" in2="shape" result="effect1_innerShadow_2_99"></feBlend>
            <feColorMatrix in="SourceAlpha" type="matrix" values="0 0 0 0 0 0 0 0 0 0 0 0 0 0 0 0 0 0 127 0" result="hardAlpha"></feColorMatrix>
            <feOffset dy="-0.5"></feOffset>
            <feGaussianBlur stdDeviation="0.25"></feGaussianBlur>
            <feComposite in2="hardAlpha" operator="arithmetic" k2="-1" k3="1"></feComposite>
            <feColorMatrix type="matrix" values="0 0 0 0 1 0 0 0 0 1 0 0 0 0 1 0 0 0 0.1 0"></feColorMatrix>
            <feBlend mode="normal" in2="effect1_innerShadow_2_99" result="effect2_innerShadow_2_99"></feBlend>
        </filter>
        <radialGradient id="paint0_radial_2_99" cx="0" cy="0" r="1" gradientUnits="userSpaceOnUse" gradientTransform="translate(3.14715 118.839) rotate(-46.6545) scale(121.547 142.995)">
            <stop></stop>
            <stop offset="0.906032" stop-color="#9CB1C4" stop-opacity="0"></stop>
        </radialGradient>
        <radialGradient id="paint1_radial_2_99" cx="0" cy="0" r="1" gradientUnits="userSpaceOnUse" gradientTransform="translate(13.6532 100.342) rotate(-46.6545) scale(40.5159 47.6651)">
            <stop></stop>
            <stop offset="0.906032" stop-color="#9CB1C4" stop-opacity="0"></stop>
        </radialGradient>
        <radialGradient id="paint2_radial_2_99" cx="0" cy="0" r="1" gradientUnits="userSpaceOnUse" gradientTransform="translate(22.3244 14.5684) rotate(-46.6545) scale(8.10316 9.53298)">
            <stop></stop>
            <stop offset="0.906032" stop-color="#9CB1C4" stop-opacity="0"></stop>
        </radialGradient>
        <radialGradient id="paint3_radial_2_99" cx="0" cy="0" r="1" gradientUnits="userSpaceOnUse" gradientTransform="translate(29.1994 14.5684) rotate(-46.6545) scale(8.10316 9.53298)">
            <stop></stop>
            <stop offset="0.906032" stop-color="#9CB1C4" stop-opacity="0"></stop>
        </radialGradient>
        <radialGradient id="paint4_radial_2_99" cx="0" cy="0" r="1" gradientUnits="userSpaceOnUse" gradientTransform="translate(36.0744 14.5684) rotate(-46.6545) scale(8.10316 9.53298)">
            <stop></stop>
            <stop offset="0.906032" stop-color="#9CB1C4" stop-opacity="0"></stop>
        </radialGradient>
        <radialGradient id="paint5_radial_2_99" cx="0" cy="0" r="1" gradientUnits="userSpaceOnUse" gradientTransform="translate(37.6189 72.1875) rotate(-48.0475) scale(83.1992 97.4892)">
            <stop></stop>
            <stop offset="0.906032" stop-color="#9CB1C4" stop-opacity="0"></stop>
        </radialGradient>
        <radialGradient id="paint6_radial_2_99" cx="0" cy="0" r="1" gradientUnits="userSpaceOnUse" gradientTransform="translate(53.2619 79.3898) rotate(-69.3164) scale(15.7471 12.2637)">
            <stop></stop>
            <stop offset="0.906032" stop-color="#9CB1C4" stop-opacity="0"></stop>
        </radialGradient>
        <radialGradient id="paint7_radial_2_99" cx="0" cy="0" r="1" gradientUnits="userSpaceOnUse" gradientTransform="translate(53.2619 26.1086) rotate(-69.3164) scale(15.7471 12.2637)">
            <stop></stop>
            <stop offset="0.906032" stop-color="#9CB1C4" stop-opacity="0"></stop>
        </radialGradient>
        <radialGradient id="paint8_radial_2_99" cx="0" cy="0" r="1" gradientUnits="userSpaceOnUse" gradientTransform="translate(33.9299 36.7726) rotate(-132.325) scale(14.7565 12.1386)">
            <stop></stop>
            <stop offset="0.906032" stop-color="#9CB1C4" stop-opacity="0"></stop>
        </radialGradient>
        <radialGradient id="paint9_radial_2_99" cx="0" cy="0" r="1" gradientUnits="userSpaceOnUse" gradientTransform="translate(78.0476 36.6695) rotate(-50.0819) scale(14.1827 12.6297)">
            <stop></stop>
            <stop offset="0.906032" stop-color="#9CB1C4" stop-opacity="0"></stop>
        </radialGradient>
        <radialGradient id="paint10_radial_2_99" cx="0" cy="0" r="1" gradientUnits="userSpaceOnUse" gradientTransform="translate(26.824 64.1633) rotate(-50.0818) scale(14.1827 12.6297)">
            <stop></stop>
            <stop offset="0.906032" stop-color="#9CB1C4" stop-opacity="0"></stop>
        </radialGradient>
        <radialGradient id="paint11_radial_2_99" cx="0" cy="0" r="1" gradientUnits="userSpaceOnUse" gradientTransform="translate(14.9558 122.604) rotate(-48.2259) scale(221.245 259.068)">
            <stop></stop>
            <stop offset="0.906032" stop-color="#9CB1C4" stop-opacity="0"></stop>
        </radialGradient>
        </defs>
    </symbol>
    <symbol id="number-01" width="71" height="24" viewBox="0 0 71 24" fill="none" xmlns="http://www.w3.org/2000/svg">
        <path d="M6.10547 9.27441V15.3672C6.10547 16.4242 6.22445 17.2293 6.4624 17.7827C6.70589 18.3361 7.1403 18.7262 7.76562 18.9531C8.39648 19.18 9.32894 19.299 10.563 19.3101H17.021C18.1942 19.299 19.0796 19.1911 19.6772 18.9863C20.2804 18.776 20.6955 18.397 20.9224 17.8491C21.1548 17.2957 21.271 16.4684 21.271 15.3672L21.3042 9.27441C21.3042 8.389 21.2433 7.68343 21.1216 7.15771C21.0054 6.62646 20.7923 6.21419 20.4824 5.9209C20.1781 5.62207 19.7575 5.41455 19.2207 5.29834C18.6895 5.1766 17.9673 5.11019 17.0542 5.09912H10.5962C9.37321 5.11019 8.44076 5.23747 7.79883 5.48096C7.16243 5.72445 6.71973 6.13672 6.4707 6.71777C6.22721 7.29883 6.10547 8.15104 6.10547 9.27441ZM26.9487 15.9399C26.9487 17.6222 26.8021 18.9836 26.5088 20.0239C26.2155 21.0588 25.7451 21.8612 25.0977 22.4312C24.4502 23.0011 23.5897 23.4023 22.5161 23.6348C21.4481 23.8617 20.0812 23.9834 18.4155 24H9.20166C7.4585 23.9834 6.0446 23.8534 4.95996 23.6099C3.87533 23.3664 3.00098 22.9513 2.33691 22.3647C1.67285 21.7782 1.19417 20.9702 0.900879 19.9409C0.607585 18.9116 0.460938 17.578 0.460938 15.9399V8.86768C0.460938 6.6818 0.715495 4.99398 1.22461 3.8042C1.73926 2.61442 2.62191 1.75944 3.87256 1.23926C5.12321 0.713542 6.89958 0.434082 9.20166 0.400879H18.4155C20.5737 0.434082 22.2699 0.719076 23.5039 1.25586C24.738 1.79264 25.6206 2.66423 26.1519 3.87061C26.6831 5.07699 26.9487 6.74268 26.9487 8.86768V15.9399ZM49.16 24H43.5154V5.47266H41.7806L35.4969 10.4033L32.5003 6.07861L39.8133 0.400879H49.16V24ZM63.4855 24V18.3555H70.0514V24H63.4855Z" fill="url(#paint0_linear_62_172)"/>
        <defs>
        <linearGradient id="paint0_linear_62_172" x1="-1" y1="-5" x2="75.1866" y2="-0.426619" gradientUnits="userSpaceOnUse">
        <stop stop-color="#00CCFF"/>
        <stop offset="1" stop-color="#66FFCC"/>
        </linearGradient>
        </defs>
    </symbol>
    <symbol id="instagram-feedback" width="24" height="24" viewBox="0 0 24 24" fill="none" xmlns="http://www.w3.org/2000/svg">
        <path fill-rule="evenodd" clip-rule="evenodd" d="M12 0C8.73998 0 8.33398 0.014 7.05198 0.0739998C2.69199 0.273999 0.271999 2.69199 0.0719998 7.05198C0.014 8.33398 0 8.74198 0 12C0 15.26 0.014 15.668 0.0719998 16.948C0.271999 21.3059 2.69199 23.7279 7.05198 23.9279C8.33398 23.9859 8.73998 23.9999 12 23.9999C15.26 23.9999 15.668 23.9859 16.95 23.9279C21.3019 23.7279 23.7319 21.3099 23.9279 16.948C23.9859 15.668 23.9999 15.26 23.9999 12C23.9999 8.74198 23.9859 8.33398 23.9279 7.05198C23.7319 2.69799 21.3099 0.271999 16.95 0.0739998C15.668 0.014 15.26 0 12 0ZM12 2.16389C15.204 2.16389 15.584 2.17589 16.85 2.23389C20.104 2.38189 21.62 3.92389 21.77 7.15188C21.826 8.41788 21.838 8.79588 21.838 11.9999C21.838 15.2039 21.826 15.5839 21.77 16.8479C21.62 20.0738 20.106 21.6198 16.85 21.7678C15.584 21.8238 15.206 21.8378 12 21.8378C8.79601 21.8378 8.41602 21.8258 7.15202 21.7678C3.89203 21.6178 2.38203 20.0698 2.23203 16.8479C2.17603 15.5839 2.16203 15.2039 2.16203 11.9999C2.16203 8.79588 2.17603 8.41588 2.23203 7.15188C2.38003 3.92189 3.89603 2.37989 7.15202 2.23189C8.41602 2.17389 8.79601 2.16389 12 2.16389ZM5.83814 12C5.83814 8.596 8.59813 5.838 12.0001 5.838C15.4021 5.838 18.1621 8.598 18.1621 12C18.1621 15.404 15.4021 18.162 12.0001 18.162C8.59813 18.162 5.83814 15.404 5.83814 12ZM12 15.9998C9.79005 15.9998 8.00006 14.2098 8.00006 11.9998C8.00006 9.79181 9.79005 7.99981 12 7.99981C14.208 7.99981 16.002 9.78981 16.002 11.9998C16.002 14.2098 14.208 15.9998 12 15.9998ZM16.9641 5.59666C16.9641 4.80066 17.6101 4.15666 18.4041 4.15666C19.2021 4.15666 19.8461 4.80066 19.8461 5.59666C19.8461 6.39265 19.2001 7.03665 18.4041 7.03665C17.6081 7.03665 16.9641 6.39065 16.9641 5.59666Z" fill="#B3B9C0"/>
    </symbol>
</svg>